<svg width="100" height="100" viewBox="0 0 100 100" fill="none" xmlns="http://www.w3.org/2000/svg">
<path d="M25.3248 50C25.3314 43.4578 27.9332 37.1855 32.5593 32.5595C37.1853 27.9334 43.4576 25.3316 49.9998 25.325C54.3286 25.3339 58.5795 26.4769 62.3291 28.6401C66.0787 30.8033 69.196 33.9112 71.3706 37.6542L65.1248 41.2667L86.0706 29.175C85.5319 28.1974 84.7533 27.3729 83.8081 26.7792L53.204 9.1125C51.4373 8.09167 48.554 8.09167 46.7915 9.1125L16.1873 26.7792C14.429 27.7958 12.9873 30.2958 12.9873 32.3333V67.6667C12.9873 68.6875 13.3456 69.8208 13.929 70.825L28.6331 62.3333C26.4601 58.5867 25.3186 54.3312 25.3248 50Z" fill="#144444"/>
<path d="M60.6833 43.8292C59.5971 41.957 58.039 40.4024 56.1645 39.3204C54.2899 38.2384 52.1644 37.6667 50 37.6625C47.8362 37.6667 45.7115 38.2394 43.8386 39.3231C41.9658 40.4068 40.4105 41.9636 39.3286 43.8375C38.2468 45.7114 37.6762 47.8367 37.6741 50.0005C37.672 52.1643 38.2384 54.2907 39.3167 56.1667L50 50L60.6833 43.8292Z" fill="#144444"/>
<path d="M86.0709 29.175L65.0459 41.3125L60.6875 43.8333L60.6834 43.8292L50 50L39.3209 56.1667C40.404 58.0409 41.9607 59.5976 43.835 60.6807C45.7093 61.7637 47.8353 62.3351 50 62.3375C52.1657 62.334 54.2925 61.7623 56.1679 60.6794C58.0434 59.5965 59.6018 58.0405 60.6875 56.1667L71.3667 62.3458C69.1928 66.0894 66.0756 69.1977 62.3258 71.361C58.5761 73.5243 54.3249 74.6669 49.9959 74.675C45.6649 74.6725 41.4107 73.5308 37.6604 71.3645C33.91 69.1983 30.7955 66.0837 28.6292 62.3333L13.925 70.825C14.5084 71.8333 15.3084 72.7125 16.1875 73.2208L46.7917 90.8875C48.5542 91.9083 51.4375 91.9083 53.2042 90.8875L83.8084 73.2208C84.6875 72.7125 85.4875 71.8333 86.0709 70.825C86.6542 69.8208 87.0126 68.6875 87.0126 67.6667V32.3333C87.0126 31.3125 86.6542 30.1792 86.0709 29.175ZM74.675 51.3708H71.9334V54.1125H69.1959V51.3708H66.4542V48.6292H69.1959V45.8875H71.9334V48.6292H74.675V51.3708ZM84.9584 51.3708H82.2167V54.1125H79.475V51.3708H76.7375V48.6292H79.475V45.8875H82.2167V48.6292H84.9584V51.3708Z" fill="#144444"/>
</svg>
