<svg width="100" height="100" viewBox="0 0 100 100" fill="none" xmlns="http://www.w3.org/2000/svg">
<path d="M58.3334 8.33334H25.0001C22.7899 8.33334 20.6703 9.21131 19.1075 10.7741C17.5447 12.3369 16.6667 14.4565 16.6667 16.6667V83.3333C16.6667 85.5435 17.5447 87.6631 19.1075 89.2259C20.6703 90.7887 22.7899 91.6667 25.0001 91.6667H75.0001C77.2102 91.6667 79.3298 90.7887 80.8926 89.2259C82.4554 87.6631 83.3334 85.5435 83.3334 83.3333V33.3333L58.3334 8.33334ZM39.3584 72.55C40.5042 72.55 41.7792 72.2958 42.5334 72L43.1084 74.9708C42.4084 75.3208 40.8334 75.6958 38.7876 75.6958C32.9667 75.6958 29.9667 72.075 29.9667 67.275C29.9626 61.5333 34.0626 58.3333 39.1584 58.3333C41.1334 58.3333 42.6292 58.7333 43.3042 59.0833L42.5292 62.1083C41.5145 61.6906 40.4266 61.4796 39.3292 61.4875C36.3042 61.4875 33.9542 63.3125 33.9542 67.0583C33.9584 70.425 35.9626 72.55 39.3584 72.55ZM49.7376 75.6958C47.8167 75.6958 45.9167 75.2 44.9667 74.675L45.7417 71.525C46.7667 72.05 48.3417 72.575 49.9667 72.575C51.7167 72.575 52.6417 71.85 52.6417 70.75C52.6417 69.7 51.8417 69.1 49.8167 68.375C47.0167 67.4 45.1959 65.8542 45.1959 63.4042C45.1959 60.5333 47.5917 58.3333 51.5667 58.3333C53.4626 58.3333 54.8626 58.7333 55.8626 59.1792L55.0126 62.2542C53.914 61.7219 52.7082 61.4483 51.4876 61.4542C49.8376 61.4542 49.0417 62.2083 49.0417 63.0792C49.0417 64.1542 49.9917 64.6292 52.1626 65.4542C55.1376 66.5542 56.5376 68.1042 56.5376 70.475C56.5334 73.3 54.3584 75.6958 49.7376 75.6958ZM63.2376 75.6958C61.3167 75.6958 59.4167 75.2 58.4667 74.675L59.2417 71.525C60.2667 72.05 61.8417 72.575 63.4667 72.575C65.2167 72.575 66.1417 71.85 66.1417 70.75C66.1417 69.7 65.3417 69.1 63.3167 68.375C60.5167 67.4 58.6959 65.8542 58.6959 63.4042C58.6959 60.5333 61.0917 58.3333 65.0667 58.3333C66.9626 58.3333 68.3626 58.7333 69.3626 59.1792L68.5126 62.2542C67.414 61.7219 66.2082 61.4483 64.9876 61.4542C63.3376 61.4542 62.5417 62.2083 62.5417 63.0792C62.5417 64.1542 63.4917 64.6292 65.6626 65.4542C68.6376 66.5542 70.0376 68.1042 70.0376 70.475C70.0376 73.3 67.8584 75.6958 63.2376 75.6958ZM58.3334 37.5H54.1667V16.6667L75.0001 37.5H58.3334Z" fill="#144444"/>
</svg>
