<svg width="100" height="100" viewBox="0 0 100 100" fill="none" xmlns="http://www.w3.org/2000/svg">
<path d="M35.4165 8.33333C32.1013 8.33333 28.9219 9.65029 26.5777 11.9945C24.2335 14.3387 22.9165 17.5181 22.9165 20.8333C22.9165 24.1485 24.2335 27.328 26.5777 29.6722C28.9219 32.0164 32.1013 33.3333 35.4165 33.3333H64.5832C67.8984 33.3333 71.0778 32.0164 73.422 29.6722C75.7662 27.328 77.0832 24.1485 77.0832 20.8333C77.0832 17.5181 75.7662 14.3387 73.422 11.9945C71.0778 9.65029 67.8984 8.33333 64.5832 8.33333H35.4165Z" fill="#144444"/>
<path d="M64.583 37.5C61.2678 37.5 58.0884 38.817 55.7442 41.1612C53.4 43.5054 52.083 46.6848 52.083 50C52.083 53.3152 53.4 56.4946 55.7442 58.8388C58.0884 61.183 61.2678 62.5 64.583 62.5C67.8982 62.5 71.0776 61.183 73.4218 58.8388C75.766 56.4946 77.083 53.3152 77.083 50C77.083 46.6848 75.766 43.5054 73.4218 41.1612C71.0776 38.817 67.8982 37.5 64.583 37.5Z" fill="#144444"/>
<path d="M22.9165 50C22.9165 46.6848 24.2335 43.5054 26.5777 41.1612C28.9219 38.817 32.1013 37.5 35.4165 37.5H47.9165V62.5H35.4165C32.1013 62.5 28.9219 61.183 26.5777 58.8388C24.2335 56.4946 22.9165 53.3152 22.9165 50Z" fill="#144444"/>
<path d="M35.4165 66.6667C32.9442 66.6667 30.5275 67.3998 28.4719 68.7733C26.4163 70.1468 24.8141 72.099 23.868 74.3831C22.9219 76.6672 22.6744 79.1805 23.1567 81.6053C23.639 84.03 24.8295 86.2573 26.5777 88.0055C28.3258 89.7536 30.5531 90.9442 32.9779 91.4265C35.4026 91.9088 37.916 91.6612 40.2001 90.7151C42.4841 89.7691 44.4364 88.1669 45.8099 86.1113C47.1834 84.0557 47.9165 81.6389 47.9165 79.1667V66.6667H35.4165Z" fill="#144444"/>
</svg>
