<svg width="100" height="100" viewBox="0 0 100 100" fill="none" xmlns="http://www.w3.org/2000/svg">
<path d="M50.0001 6.24999C48.4251 6.24999 46.8876 6.82499 45.7033 8.00937L36.9126 16.8937C36.4376 17.15 36.0376 17.5187 35.7439 17.9687L8.00639 45.7031C6.86866 46.8437 6.22974 48.389 6.22974 50C6.22974 51.611 6.86866 53.1563 8.00639 54.2969L45.7033 91.9937C46.8471 93.1254 48.3911 93.7602 50.0001 93.7602C51.6092 93.7602 53.1532 93.1254 54.297 91.9937L91.9939 54.2969C93.1316 53.1563 93.7705 51.611 93.7705 50C93.7705 48.389 93.1316 46.8437 91.9939 45.7031L54.2939 8.00624C53.7303 7.4436 53.0604 6.99859 52.3233 6.69709C51.5862 6.39559 50.7965 6.24361 50.0001 6.24999ZM50.0001 12.5969L87.4033 50L50.0001 87.4031L12.597 50L38.4783 24.1219L43.947 29.5906C43.8067 30.1323 43.7404 30.6905 43.7501 31.25C43.7501 33.5562 45.0064 35.5344 46.8751 36.6219V63.3781C45.0064 64.4656 43.7501 66.4406 43.7501 68.75C43.7501 70.4076 44.4086 71.9973 45.5807 73.1694C46.7528 74.3415 48.3425 75 50.0001 75C51.6577 75 53.2475 74.3415 54.4196 73.1694C55.5917 71.9973 56.2501 70.4076 56.2501 68.75C56.2501 66.4437 54.9939 64.4656 53.1251 63.3781V38.8687L62.697 48.4375C62.4579 49.3612 62.4335 50.3275 62.6258 51.2621C62.8181 52.1967 63.222 53.0749 63.8064 53.8292C64.3908 54.5835 65.1403 55.1938 65.9973 55.6135C66.8542 56.0331 67.7959 56.2509 68.7501 56.25C72.2001 56.25 74.997 53.4531 74.997 50C74.9984 49.0455 74.781 48.1035 74.3615 47.2461C73.9421 46.3887 73.3318 45.6389 72.5774 45.0541C71.8231 44.4693 70.9448 44.0652 70.0099 43.8727C69.075 43.6802 68.1085 43.7045 67.1845 43.9437L56.0533 32.8125C56.2924 31.8888 56.3168 30.9225 56.1245 29.9879C55.9321 29.0533 55.5283 28.1751 54.9439 27.4208C54.3594 26.6665 53.61 26.0562 52.753 25.6365C51.896 25.2169 50.9543 24.9991 50.0001 25C49.4417 24.9906 48.8846 25.0568 48.3439 25.1969L42.8751 19.7281L50.0001 12.5969Z" fill="#144444"/>
</svg>
