<svg width="100" height="100" viewBox="0 0 100 100" fill="none" xmlns="http://www.w3.org/2000/svg">
<g clip-path="url(#clip0)">
<path d="M85.8718 7.67641e-05H14.1311C12.9475 -0.00571555 11.7744 0.223099 10.6797 0.673301C9.58496 1.1235 8.5903 1.78617 7.75317 2.62301C6.91604 3.45985 6.25303 4.45428 5.80245 5.54885C5.35186 6.64341 5.12264 7.81641 5.12802 9.00008V91.0001C5.12264 92.1838 5.35186 93.3568 5.80245 94.4513C6.25303 95.5459 6.91604 96.5403 7.75317 97.3772C8.5903 98.214 9.58496 98.8767 10.6797 99.3269C11.7744 99.7771 12.9475 100.006 14.1311 100H85.8718C87.0551 100.005 88.2276 99.775 89.3218 99.3243C90.4159 98.8737 91.4101 98.211 92.247 97.3744C93.0838 96.5378 93.7469 95.5438 94.1979 94.4498C94.649 93.3558 94.879 92.1834 94.8749 91.0001V9.00008C94.8803 7.81641 94.6511 6.64341 94.2005 5.54885C93.7499 4.45428 93.0869 3.45985 92.2497 2.62301C91.4126 1.78617 90.418 1.1235 89.3232 0.673301C88.2285 0.223099 87.0554 -0.00571555 85.8718 7.67641e-05ZM89.8749 91.0001C89.8749 93.247 88.1155 95.0032 85.8718 95.0032H14.1311C13.6038 95.0091 13.0806 94.9095 12.5923 94.7104C12.104 94.5113 11.6603 94.2167 11.2875 93.8438C10.9146 93.4709 10.6199 93.0272 10.4208 92.5389C10.2217 92.0506 10.1222 91.5274 10.128 91.0001V9.00008C10.128 6.7532 11.8874 4.99695 14.1311 4.99695H85.8718C88.1186 4.99695 89.8749 6.75633 89.8749 9.00008V91.0001ZM27.6218 84.9907L38.8686 75.0001L27.6218 65.0095V84.9907ZM68.1343 44.5001C66.1311 42.497 62.3874 40.0095 56.1374 40.0095C49.3843 40.0095 42.3843 41.7501 37.3874 43.5063V15.0095H27.3749V58.2501L34.3749 54.997C34.3749 54.997 45.8843 49.7563 55.8749 49.7563C60.8718 49.7563 62.1249 52.5095 62.1249 54.997V84.9938H72.1343V54.997C72.3811 54.2501 72.3811 48.747 68.1343 44.5001ZM54.8843 31.2501H64.8749C69.3655 25.9907 71.628 20.7501 72.378 15.0095H62.3874C61.3749 20.7501 58.8718 25.9938 54.8843 31.2501Z" fill="#144444"/>
</g>
<defs>
<clipPath id="clip0">
<rect width="100" height="100" fill="white"/>
</clipPath>
</defs>
</svg>
