<svg width="100" height="100" viewBox="0 0 100 100" fill="none" xmlns="http://www.w3.org/2000/svg">
<path d="M58.3334 8.33334H25.0001C22.7899 8.33334 20.6703 9.21131 19.1075 10.7741C17.5447 12.3369 16.6667 14.4565 16.6667 16.6667V83.3333C16.6667 85.5435 17.5447 87.6631 19.1075 89.2259C20.6703 90.7887 22.7899 91.6667 25.0001 91.6667H75.0001C77.2102 91.6667 79.3298 90.7887 80.8926 89.2259C82.4554 87.6631 83.3334 85.5435 83.3334 83.3333V33.3333L58.3334 8.33334ZM54.1667 16.6667L75.0001 37.5H54.1667V16.6667ZM35.5459 75H32.3792V69.1208H27.1459V75H23.9501V60.9458H27.1459V66.3458H32.3834V60.9458H35.5501V75H35.5459ZM48.0459 63.6167H44.2084V75H41.0167V63.6167H37.2459V60.9458H48.0459V63.6167ZM61.7417 75L61.5334 69.6208C61.4626 67.9333 61.4084 65.8875 61.4084 63.8417H61.3417C60.9084 65.6375 60.3209 67.6375 59.7792 69.2875L58.0709 74.7708H55.5834L54.0876 69.325C53.5813 67.5171 53.1558 65.6875 52.8126 63.8417H52.7667C52.6792 65.7417 52.6251 67.9083 52.5209 69.6583L52.2709 75H49.3334L50.2334 60.9458H54.4626L55.8417 65.6375C56.2751 67.2667 56.7167 69.0167 57.0251 70.6625H57.0959C57.4917 69.0333 57.9667 67.1792 58.4292 65.6167L59.9251 60.9458H64.0751L64.8459 75H61.7417ZM76.0501 75H67.2667V60.9458H70.4626V72.3292H76.0542V75H76.0501Z" fill="#144444"/>
</svg>
