<svg width="975" height="900" viewBox="0 0 975 900" fill="none" xmlns="http://www.w3.org/2000/svg">
<g id="logo">
<g id="EPHRATHAH">
<path id="E" d="M352.718 287.279L352.142 287.676C351.142 288.363 350.115 288.928 349.06 289.371C348.005 289.814 346.94 290.036 345.866 290.039C344.83 290.016 343.777 289.72 342.707 289.154C341.676 288.56 340.671 287.553 339.692 286.13L320.369 258.046C319.416 256.662 318.847 255.382 318.662 254.207C318.476 253.032 318.558 251.956 318.906 250.98C319.227 249.966 319.764 249.058 320.516 248.258C321.242 247.419 322.066 246.682 322.989 246.047L323.911 245.412L352.718 287.279ZM337.423 262.456L342.555 258.924C343.164 259.808 343.642 260.669 343.991 261.505C344.378 262.315 344.578 263.14 344.591 263.982C344.615 264.758 344.425 265.511 344.022 266.242C343.618 266.973 342.936 267.669 341.975 268.33L341.629 268.568L337.423 262.456ZM361.538 273.053C361.988 273.706 362.322 274.439 362.541 275.252C362.76 276.064 362.805 276.911 362.676 277.793C362.52 278.637 362.196 279.483 361.703 280.332C361.211 281.18 360.465 281.948 359.465 282.636C358.735 283.139 357.944 283.513 357.094 283.758C356.216 283.965 355.35 284.023 354.494 283.932C353.677 283.815 352.884 283.568 352.115 283.191C351.384 282.787 350.754 282.201 350.225 281.432C350.013 281.124 349.828 280.855 349.669 280.625C349.523 280.329 349.401 279.988 349.305 279.601C350.122 279.718 350.896 279.526 351.626 279.023C352.203 278.626 352.565 278.123 352.711 277.512C352.831 276.863 352.64 276.174 352.137 275.443L350.193 272.617C350.447 272.329 350.805 272.026 351.267 271.708C351.805 271.338 352.492 270.979 353.328 270.63C354.138 270.242 355.015 270.035 355.96 270.009C356.905 269.982 357.872 270.194 358.862 270.646C359.826 271.059 360.718 271.861 361.538 273.053ZM340.31 242.201C341.156 243.431 341.6 244.57 341.642 245.618C341.683 246.666 341.522 247.626 341.16 248.499C340.797 249.371 340.303 250.136 339.679 250.792C339.028 251.41 338.433 251.904 337.895 252.274C337.433 252.592 337.023 252.818 336.662 252.953L334.837 250.3C334.308 249.531 333.719 249.087 333.07 248.967C332.433 248.782 331.807 248.901 331.192 249.324C330.461 249.827 330.005 250.481 329.822 251.286C329.495 251.058 329.233 250.842 329.036 250.638C328.851 250.368 328.653 250.08 328.441 249.772C328.124 249.311 327.863 248.726 327.658 248.017C327.465 247.243 327.409 246.461 327.488 245.67C327.579 244.814 327.851 243.976 328.305 243.153C328.771 242.266 329.504 241.479 330.503 240.791C331.311 240.236 332.172 239.841 333.088 239.608C334.003 239.374 334.902 239.322 335.784 239.452C336.667 239.581 337.499 239.886 338.283 240.366C339.079 240.782 339.755 241.393 340.31 242.201Z" fill="#144444"/>
<path id="P" d="M383.601 260.67C384.187 262.195 384.368 263.575 384.143 264.812C383.919 266.048 383.467 267.147 382.787 268.108C382.09 269.027 381.225 269.834 380.193 270.531C379.205 271.211 378.21 271.744 377.208 272.129L362.407 233.647C361.301 230.773 361.1 228.3 361.804 226.23C362.507 224.159 364.1 222.646 366.583 221.691C367.803 221.222 368.932 221.038 369.97 221.138C370.992 221.195 371.89 221.45 372.664 221.902C373.438 222.355 374.101 222.974 374.654 223.762C375.234 224.489 375.7 225.31 376.052 226.224L376.303 226.878C375.897 226.734 375.482 226.693 375.056 226.757C374.658 226.76 374.284 226.829 373.936 226.963C373.282 227.214 372.81 227.546 372.518 227.958C372.254 228.31 372.088 228.724 372.021 229.2C371.981 229.615 372.009 230.079 372.106 230.592C372.247 231.088 372.418 231.597 372.619 232.12L383.601 260.67ZM374.147 218.932C374.364 218.848 374.539 218.781 374.669 218.731C374.827 218.62 375.014 218.523 375.232 218.44C377.889 217.418 380.213 217.349 382.203 218.233C384.193 219.118 385.8 221.15 387.023 224.329L391.521 236.024C392.074 237.462 392.342 238.808 392.325 240.065C392.352 241.305 392.168 242.45 391.772 243.502C391.404 244.494 390.816 245.37 390.008 246.131C389.244 246.875 388.34 247.448 387.294 247.85C385.944 248.369 384.75 248.579 383.711 248.478C382.672 248.378 381.758 248.079 380.967 247.584C380.203 247.027 379.536 246.334 378.967 245.503C378.441 244.655 378.002 243.774 377.65 242.859C378.394 242.973 379.158 242.879 379.942 242.578C380.595 242.327 381.054 242.025 381.319 241.673C381.61 241.261 381.776 240.847 381.816 240.432C381.883 239.956 381.846 239.47 381.706 238.974C381.608 238.462 381.459 237.944 381.258 237.422L374.147 218.932Z" fill="#144444"/>
<path id="H" d="M408.955 208.583L410.068 208.451C411.18 208.318 412.285 208.327 413.384 208.478C414.478 208.582 415.48 208.909 416.392 209.458C417.298 209.961 418.069 210.715 418.706 211.72C419.343 212.725 419.761 214.061 419.96 215.73L424 249.579C424.205 251.294 424.093 252.717 423.664 253.849C423.282 254.976 422.686 255.893 421.878 256.6C421.115 257.302 420.169 257.838 419.038 258.208C417.954 258.573 416.832 258.824 415.674 258.962L414.979 259.045L408.955 208.583ZM426.124 206.534L427.236 206.401C428.348 206.269 429.453 206.278 430.552 206.429C431.646 206.533 432.648 206.86 433.56 207.409C434.466 207.912 435.237 208.666 435.874 209.671C436.511 210.676 436.929 212.012 437.128 213.68L441.168 247.53C441.373 249.244 441.261 250.668 440.832 251.8C440.45 252.927 439.854 253.844 439.046 254.551C438.283 255.253 437.337 255.789 436.206 256.159C435.122 256.523 434 256.775 432.842 256.913L432.147 256.996L426.124 206.534ZM422.37 228.836L428.695 228.081C428.626 229.076 428.526 230.005 428.393 230.867C428.256 231.682 427.991 232.419 427.6 233.076C427.249 233.682 426.748 234.212 426.098 234.666C425.441 235.073 424.58 235.34 423.514 235.467L423.167 235.509L422.37 228.836Z" fill="#144444"/>
<path id="R" d="M469.129 248.63C468.912 250.249 468.409 251.547 467.62 252.524C466.83 253.501 465.906 254.249 464.848 254.767C463.796 255.238 462.651 255.533 461.411 255.649C460.218 255.772 459.089 255.763 458.025 255.621L463.411 215.309C463.843 212.071 464.917 209.672 466.632 208.112C468.347 206.552 470.592 205.958 473.368 206.328C474.755 206.514 475.858 206.896 476.675 207.476C477.492 208.056 478.082 208.747 478.446 209.549C478.856 210.357 479.094 211.213 479.162 212.117C479.236 212.974 479.22 213.796 479.115 214.582C479.06 214.998 478.973 215.293 478.856 215.466C478.323 214.876 477.64 214.526 476.807 214.415C476.113 214.322 475.54 214.387 475.086 214.609C474.685 214.791 474.341 215.074 474.054 215.46C473.82 215.805 473.622 216.226 473.462 216.722C473.348 217.225 473.254 217.754 473.179 218.309L469.129 248.63ZM480.842 207.468L481.744 207.589C484.381 207.941 486.444 209.064 487.933 210.958C489.428 212.806 489.968 215.279 489.554 218.378L488.581 225.663C488.173 228.716 487.101 230.927 485.365 232.296C483.674 233.671 481.759 234.262 479.619 234.071L479.133 234.006C477.838 233.833 476.782 233.456 475.965 232.876C475.148 232.296 474.508 231.622 474.046 230.854C473.636 230.046 473.371 229.21 473.251 228.347C473.137 227.437 473.136 226.566 473.247 225.733C473.534 226.054 473.806 226.302 474.065 226.478C474.331 226.608 474.879 226.728 475.712 226.839C476.313 226.92 476.798 226.82 477.165 226.539C477.584 226.219 477.897 225.813 478.104 225.323C478.357 224.839 478.524 224.296 478.604 223.695C478.737 223.053 478.837 222.478 478.905 221.969L480.842 207.468ZM483.003 258.958L482.309 258.865C481.107 258.704 479.919 258.428 478.748 258.036C477.622 257.65 476.614 257.092 475.723 256.361C474.878 255.636 474.226 254.701 473.767 253.557C473.308 252.413 473.192 250.985 473.421 249.274L475.386 234.564L476.496 234.713C477.653 234.867 478.791 235.16 479.91 235.592C481.035 235.978 481.994 236.554 482.787 237.319C483.631 238.044 484.26 238.975 484.673 240.113C485.086 241.251 485.181 242.653 484.959 244.318L483.003 258.958Z" fill="#144444"/>
<path id="A" d="M507.187 266.009C506.061 265.557 505.021 265.015 504.069 264.382C503.116 263.748 502.341 262.985 501.743 262.092C501.189 261.217 500.852 260.177 500.732 258.972C500.654 257.785 500.937 256.39 501.579 254.787L514.262 223.144C514.852 221.671 515.65 220.558 516.656 219.805C517.679 219.008 518.759 218.511 519.894 218.312C521.047 218.07 522.216 218.037 523.404 218.211C524.634 218.402 525.747 218.698 526.744 219.097L507.837 266.269L507.187 266.009ZM519.32 239.5L524.583 241.609C523.871 243.385 522.948 244.749 521.812 245.702C520.693 246.611 519.138 246.666 517.145 245.868L516.82 245.737L519.32 239.5ZM528.762 232.5C528.953 232.024 529.101 231.53 529.205 231.018C529.37 230.481 529.422 229.974 529.362 229.498C529.362 228.995 529.22 228.536 528.934 228.12C528.692 227.721 528.246 227.391 527.596 227.131C526.773 226.801 525.976 226.783 525.204 227.077C525.222 226.28 525.344 225.6 525.57 225.037C525.847 224.343 526.225 223.715 526.702 223.153C527.239 222.564 527.872 222.113 528.601 221.802C529.329 221.491 530.143 221.339 531.045 221.349C532.007 221.332 533.072 221.558 534.242 222.027C535.541 222.548 536.594 223.246 537.399 224.122C538.265 224.972 538.88 225.947 539.243 227.048C539.623 228.105 539.77 229.245 539.682 230.467C539.656 231.663 539.399 232.867 538.913 234.08L523.496 272.545C522.326 272.077 521.213 271.53 520.156 270.905C519.143 270.298 518.285 269.552 517.584 268.668C516.944 267.757 516.58 266.656 516.495 265.365C516.409 264.074 516.731 262.519 517.46 260.699L528.762 232.5Z" fill="#144444"/>
<path id="T" d="M554.663 292.774L554.109 292.346C553.15 291.603 552.298 290.797 551.555 289.927C550.812 289.057 550.276 288.111 549.946 287.088C549.653 286.095 549.614 285.002 549.828 283.81C550.079 282.647 550.732 281.383 551.789 280.017L577.794 246.415L578.68 247.1C579.566 247.786 580.347 248.568 581.025 249.446C581.731 250.287 582.216 251.224 582.48 252.254C582.773 253.248 582.794 254.327 582.544 255.49C582.293 256.653 581.653 257.898 580.625 259.227L554.663 292.774ZM561.595 242.641C562.081 242.014 562.677 241.472 563.384 241.016C564.091 240.56 564.884 240.26 565.764 240.114C566.644 239.969 567.548 240.02 568.478 240.267C569.436 240.478 570.395 240.954 571.355 241.697C572.351 242.468 573.057 243.309 573.473 244.221C573.917 245.096 574.142 245.949 574.148 246.78C574.22 247.602 574.119 248.38 573.847 249.113C573.64 249.838 573.365 250.422 573.022 250.865C572.794 251.16 572.561 251.423 572.324 251.653C572.153 251.874 571.898 252.09 571.558 252.299C571.385 251.456 570.965 250.778 570.301 250.264C569.748 249.836 569.143 249.663 568.489 249.746C567.863 249.793 567.278 250.167 566.736 250.868L564.636 253.581C564.284 253.426 563.886 253.177 563.443 252.835C562.927 252.435 562.361 251.908 561.745 251.255C561.158 250.564 560.708 249.774 560.395 248.882C560.082 247.991 559.975 247.023 560.075 245.979C560.175 244.935 560.681 243.822 561.595 242.641ZM593.537 267.361C592.623 268.542 591.674 269.312 590.688 269.67C589.703 270.029 588.739 270.168 587.797 270.089C586.856 270.009 585.977 269.772 585.162 269.377C584.375 268.945 583.723 268.529 583.207 268.129C582.764 267.786 582.423 267.464 582.185 267.162L584.156 264.615C584.756 263.84 585.014 263.125 584.93 262.47C584.847 261.816 584.528 261.274 583.975 260.846C583.273 260.303 582.512 260.068 581.689 260.139C581.807 259.758 581.933 259.443 582.067 259.193C582.267 258.934 582.482 258.658 582.71 258.362C583.053 257.92 583.531 257.493 584.144 257.082C584.822 256.663 585.55 256.37 586.327 256.205C587.17 256.031 588.052 256.035 588.973 256.217C589.96 256.39 590.933 256.849 591.893 257.591C592.889 258.362 593.61 259.185 594.054 260.06C594.535 260.964 594.797 261.845 594.84 262.704C594.948 263.555 594.856 264.399 594.564 265.234C594.336 266.062 593.994 266.771 593.537 267.361Z" fill="#144444"/>
<path id="H_2" d="M616.929 282.096L617.59 283C618.251 283.904 618.785 284.871 619.193 285.903C619.638 286.907 619.845 287.941 619.814 289.005C619.82 290.041 619.542 291.083 618.979 292.131C618.415 293.179 617.456 294.199 616.1 295.191L588.585 315.317C587.191 316.336 585.896 316.937 584.699 317.118C583.53 317.338 582.438 317.269 581.425 316.911C580.44 316.591 579.508 316.029 578.631 315.226C577.782 314.459 577.013 313.605 576.324 312.664L575.91 312.099L616.929 282.096ZM627.136 296.051L627.797 296.955C628.459 297.859 628.993 298.827 629.401 299.858C629.846 300.862 630.053 301.896 630.022 302.96C630.028 303.996 629.75 305.038 629.186 306.086C628.623 307.134 627.663 308.154 626.307 309.146L598.793 329.272C597.399 330.291 596.104 330.892 594.907 331.074C593.737 331.293 592.646 331.224 591.633 330.866C590.647 330.547 589.716 329.985 588.839 329.181C587.989 328.415 587.22 327.561 586.531 326.619L586.118 326.054L627.136 296.051ZM605.861 303.721L609.622 308.862C608.72 309.29 607.862 309.658 607.046 309.965C606.268 310.245 605.497 310.376 604.731 310.358C604.031 310.349 603.324 310.173 602.61 309.828C601.933 309.456 601.277 308.837 600.644 307.971L600.437 307.688L605.861 303.721Z" fill="#144444"/>
<path id="A_2" d="M603.505 356.634C603.059 355.506 602.738 354.378 602.543 353.251C602.348 352.124 602.37 351.036 602.608 349.989C602.863 348.984 603.386 348.024 604.179 347.109C604.988 346.237 606.195 345.483 607.801 344.848L639.501 332.308C640.976 331.724 642.333 331.539 643.571 331.752C644.853 331.947 645.956 332.389 646.881 333.077C647.849 333.748 648.678 334.574 649.367 335.556C650.074 336.582 650.625 337.593 651.02 338.591L603.763 357.285L603.505 356.634ZM631.099 347.225L633.184 352.497C631.405 353.201 629.779 353.468 628.307 353.297C626.878 353.11 625.768 352.018 624.978 350.022L624.85 349.696L631.099 347.225ZM642.673 349.27C643.15 349.082 643.61 348.849 644.053 348.574C644.557 348.324 644.961 348.014 645.266 347.643C645.631 347.297 645.866 346.878 645.972 346.384C646.095 345.934 646.028 345.384 645.771 344.733C645.445 343.908 644.909 343.317 644.166 342.959C644.757 342.424 645.335 342.045 645.899 341.821C646.593 341.547 647.309 341.389 648.045 341.349C648.843 341.334 649.605 341.485 650.331 341.799C651.058 342.114 651.728 342.602 652.341 343.263C653.014 343.95 653.582 344.88 654.046 346.051C654.561 347.353 654.777 348.597 654.695 349.784C654.673 350.997 654.387 352.114 653.837 353.135C653.33 354.138 652.603 355.028 651.656 355.804C650.769 356.607 649.718 357.248 648.503 357.729L609.968 372.973C609.505 371.801 609.137 370.617 608.864 369.42C608.608 368.266 608.561 367.131 608.721 366.013C608.942 364.922 609.492 363.902 610.371 362.952C611.249 362.002 612.6 361.167 614.423 360.446L642.673 349.27Z" fill="#144444"/>
<path id="H_3" d="M664.57 381.441L664.707 382.552C664.843 383.664 664.837 384.769 664.69 385.869C664.588 386.963 664.265 387.966 663.718 388.879C663.218 389.787 662.467 390.561 661.464 391.201C660.461 391.841 659.126 392.263 657.458 392.467L623.621 396.611C621.907 396.821 620.483 396.713 619.35 396.287C618.222 395.908 617.303 395.316 616.593 394.509C615.889 393.749 615.35 392.804 614.977 391.675C614.609 390.591 614.354 389.471 614.212 388.313L614.127 387.618L664.57 381.441ZM666.672 398.602L666.808 399.714C666.944 400.826 666.939 401.931 666.791 403.031C666.69 404.124 666.366 405.128 665.82 406.041C665.32 406.949 664.568 407.722 663.565 408.362C662.562 409.002 661.227 409.424 659.56 409.629L625.722 413.772C624.009 413.982 622.585 413.875 621.451 413.449C620.324 413.07 619.405 412.477 618.695 411.671C617.991 410.911 617.452 409.966 617.078 408.837C616.711 407.753 616.456 406.633 616.314 405.475L616.229 404.78L666.672 398.602ZM644.359 394.917L645.133 401.24C644.138 401.174 643.209 401.076 642.347 400.947C641.531 400.811 640.794 400.549 640.135 400.16C639.528 399.811 638.996 399.312 638.541 398.662C638.131 398.007 637.862 397.147 637.731 396.082L637.689 395.734L644.359 394.917Z" fill="#144444"/>
<path id="*" d="M648.128 472.737C647.897 472.337 647.705 471.971 647.553 471.64C647.026 471.982 646.506 472.302 645.991 472.599L643.473 467.937C642.924 466.92 642.595 465.987 642.485 465.136C642.362 464.33 642.416 463.499 642.646 462.642C642.96 461.47 643.561 460.4 644.45 459.43C645.338 458.46 646.439 457.596 647.754 456.837L650.012 460.849L653.906 458.487C654.611 459.643 655.151 460.874 655.525 462.183C655.898 463.491 655.91 464.798 655.56 466.106C655.354 466.872 654.962 467.612 654.384 468.327C653.839 469.099 653.074 469.788 652.091 470.393L648.128 472.737ZM630.605 466.733C631.92 465.974 633.219 465.453 634.503 465.169C635.787 464.886 637.015 464.901 638.187 465.215C638.999 465.433 639.768 465.808 640.494 466.341C641.221 466.874 641.871 467.604 642.444 468.531L645.201 473.112C644.858 473.31 644.521 473.485 644.191 473.638C644.388 473.981 644.586 474.324 644.784 474.667L640.123 477.185C639.106 477.734 638.172 478.063 637.321 478.173C636.515 478.295 635.684 478.242 634.828 478.012C633.656 477.698 632.585 477.096 631.616 476.208C630.646 475.32 629.782 474.219 629.023 472.904L632.967 470.628L630.605 466.733ZM649.339 480.382C649.9 481.353 650.229 482.287 650.327 483.183C650.458 484.136 650.415 485.018 650.197 485.83C649.859 487.092 649.201 488.196 648.222 489.141C647.232 490.132 646.165 490.957 645.022 491.617L642.832 487.623L638.919 490.052C638.16 488.738 637.639 487.438 637.355 486.154C637.071 484.87 637.087 483.642 637.401 482.47C637.631 481.614 638.012 480.823 638.545 480.096C639.078 479.369 639.802 478.742 640.717 478.214L645.297 475.456C645.594 475.971 645.862 476.502 646.102 477.049C646.4 476.839 646.743 476.641 647.131 476.456L649.339 480.382ZM647.921 475.943C648.492 475.613 649.058 475.305 649.618 475.021C649.296 474.596 648.971 474.098 648.641 473.527L652.567 471.318C653.539 470.758 654.479 470.406 655.387 470.263C656.328 470.177 657.204 470.243 658.015 470.46C659.277 470.799 660.381 471.457 661.327 472.435C662.317 473.426 663.143 474.493 663.802 475.636L659.741 477.808L662.17 481.721C661.015 482.426 659.783 482.965 658.475 483.339C657.167 483.713 655.859 483.725 654.552 483.374C653.786 483.169 653.023 482.771 652.263 482.18C651.537 481.647 650.87 480.889 650.264 479.905L647.921 475.943Z" fill="#144444"/>
<path id="O" d="M613.999 548.469C614.41 548.777 614.849 549.047 615.316 549.28C615.792 549.579 616.268 549.76 616.745 549.825C617.23 549.955 617.711 549.936 618.186 549.768C618.634 549.637 619.068 549.291 619.488 548.731C620.019 548.021 620.242 547.255 620.158 546.434C620.923 546.658 621.549 546.951 622.034 547.315C622.632 547.762 623.141 548.289 623.562 548.895C623.992 549.567 624.263 550.295 624.376 551.079C624.488 551.863 624.424 552.689 624.182 553.557C623.949 554.49 623.455 555.461 622.7 556.47C621.022 558.711 619.049 559.945 616.781 560.171C614.513 560.397 612.203 559.629 609.849 557.867L583.681 538.275C582.112 537.1 581.028 535.939 580.43 534.792C579.832 533.644 579.583 532.496 579.685 531.348C579.796 530.265 580.14 529.182 580.718 528.099C581.268 527.054 581.921 526.026 582.676 525.018L613.999 548.469ZM596.257 526.616C595.846 526.309 595.403 526.006 594.926 525.707C594.459 525.474 593.983 525.293 593.498 525.163C593.022 525.098 592.56 525.131 592.112 525.262C591.636 525.43 591.188 525.795 590.769 526.355C590.265 527.027 590.042 527.793 590.099 528.651C589.716 528.54 589.38 528.405 589.09 528.246C588.81 528.153 588.521 527.995 588.222 527.771C587.624 527.324 587.11 526.764 586.681 526.092C586.26 525.486 585.993 524.791 585.881 524.007C585.768 523.223 585.828 522.364 586.061 521.431C586.303 520.563 586.801 519.624 587.556 518.616C589.234 516.374 591.207 515.141 593.475 514.915C595.743 514.689 598.054 515.457 600.407 517.219L626.576 536.811C628.145 537.985 629.228 539.147 629.827 540.294C630.425 541.442 630.668 542.557 630.557 543.639C630.456 544.788 630.13 545.884 629.58 546.93C629.002 548.013 628.336 549.059 627.581 550.068L596.257 526.616Z" fill="#144444"/>
<path id="Y" d="M585.19 594.278L584.316 594.979C583.443 595.681 582.5 596.258 581.488 596.712C580.505 597.202 579.481 597.455 578.417 597.472C577.383 597.524 576.329 597.293 575.257 596.777C574.184 596.262 573.122 595.349 572.071 594.039L557.345 575.699C556.322 574.426 555.628 573.188 555.261 571.986C554.924 570.821 554.831 569.698 554.982 568.619C555.097 567.57 555.438 566.578 556.004 565.644C556.564 564.776 557.28 563.991 558.154 563.29C558.372 563.115 558.59 562.939 558.809 562.764C559.056 562.625 559.304 562.486 559.551 562.347L585.19 594.278ZM572.575 564.368C573.412 563.696 574.33 563.199 575.327 562.877C576.318 562.62 577.338 562.549 578.388 562.663C579.467 562.815 580.539 563.181 581.604 563.762C582.662 564.409 583.673 565.332 584.637 566.533L598.399 583.672L597.252 584.593C595.033 586.375 592.877 587.118 590.785 586.823C588.722 586.565 586.624 585.107 584.491 582.451L578.267 574.7C577.917 574.263 577.563 573.86 577.205 573.488C576.811 573.147 576.409 572.87 576.001 572.66C575.585 572.515 575.144 572.45 574.678 572.465C574.204 572.546 573.694 572.806 573.149 573.244C572.857 573.478 572.596 573.748 572.363 574.055C572.123 574.427 571.963 574.824 571.884 575.247C571.212 574.41 570.678 573.522 570.283 572.582C569.917 571.679 569.737 570.747 569.743 569.785C569.748 568.823 569.969 567.868 570.404 566.919C570.869 566.008 571.593 565.157 572.575 564.368ZM566.651 552.517C567.556 553.646 568.087 554.716 568.242 555.729C568.426 556.778 568.387 557.736 568.127 558.604C567.829 559.501 567.397 560.267 566.83 560.902C566.255 561.603 565.713 562.158 565.204 562.567C564.949 562.771 564.68 562.958 564.396 563.126C564.105 563.359 563.908 563.487 563.806 563.509L561.79 560.999C561.177 560.234 560.542 559.816 559.886 559.745C559.23 559.673 558.629 559.856 558.083 560.295C557.428 560.82 557.021 561.506 556.862 562.352C556.519 562.149 556.245 561.919 556.041 561.665C555.829 561.476 555.607 561.236 555.373 560.944C555.022 560.508 554.722 559.911 554.473 559.153C554.217 558.461 554.103 557.685 554.13 556.825C554.151 556.031 554.36 555.174 554.76 554.255C555.152 553.402 555.821 552.595 556.767 551.835C557.749 551.047 558.736 550.524 559.727 550.267C560.681 550.039 561.585 549.972 562.438 550.065C563.283 550.224 564.082 550.511 564.833 550.925C565.548 551.368 566.154 551.899 566.651 552.517Z" fill="#144444"/>
<path id="E_2" d="M523.309 573.513L523.944 573.218C525.045 572.707 526.152 572.322 527.266 572.062C528.38 571.802 529.467 571.761 530.527 571.938C531.544 572.134 532.533 572.601 533.492 573.339C534.41 574.097 535.232 575.258 535.959 576.825L550.312 607.746C551.02 609.27 551.367 610.626 551.353 611.816C551.339 613.006 551.079 614.053 550.573 614.956C550.086 615.903 549.405 616.708 548.529 617.371C547.674 618.077 546.738 618.666 545.722 619.137L544.706 619.609L523.309 573.513ZM534.236 600.545L528.585 603.168C528.133 602.194 527.805 601.266 527.601 600.383C527.355 599.52 527.296 598.673 527.425 597.842C527.531 597.072 527.844 596.361 528.364 595.708C528.884 595.055 529.673 594.483 530.731 593.992L531.112 593.815L534.236 600.545ZM512.233 586.063C511.899 585.343 511.692 584.565 511.612 583.727C511.532 582.89 511.63 582.047 511.905 581.199C512.2 580.393 512.661 579.613 513.288 578.859C513.916 578.105 514.78 577.472 515.88 576.961C516.685 576.588 517.527 576.351 518.406 576.252C519.306 576.194 520.17 576.282 520.998 576.515C521.784 576.767 522.525 577.144 523.22 577.644C523.873 578.164 524.396 578.848 524.789 579.694C524.946 580.033 525.084 580.329 525.202 580.583C525.297 580.899 525.36 581.256 525.39 581.654C524.604 581.401 523.809 581.461 523.004 581.835C522.37 582.129 521.929 582.566 521.682 583.143C521.456 583.763 521.529 584.475 521.902 585.279L523.346 588.39C523.047 588.632 522.643 588.871 522.135 589.107C521.543 589.382 520.805 589.621 519.922 589.825C519.059 590.072 518.16 590.129 517.224 589.997C516.288 589.866 515.37 589.495 514.469 588.884C513.588 588.315 512.842 587.375 512.233 586.063ZM528.001 620.032C527.372 618.677 527.125 617.48 527.26 616.44C527.395 615.4 527.714 614.48 528.217 613.68C528.721 612.881 529.335 612.209 530.061 611.667C530.806 611.167 531.475 610.779 532.068 610.504C532.576 610.268 533.019 610.114 533.396 610.041L534.752 612.962C535.145 613.809 535.652 614.345 536.271 614.572C536.868 614.861 537.506 614.848 538.183 614.534C538.987 614.16 539.546 613.592 539.861 612.829C540.145 613.108 540.367 613.365 540.528 613.6C540.665 613.896 540.812 614.213 540.97 614.552C541.205 615.06 541.365 615.681 541.448 616.414C541.508 617.209 541.433 617.99 541.223 618.756C540.99 619.584 540.581 620.366 539.996 621.101C539.389 621.897 538.534 622.551 537.434 623.062C536.545 623.474 535.63 623.719 534.688 623.796C533.746 623.873 532.851 623.774 532.003 623.499C531.155 623.224 530.385 622.784 529.693 622.179C528.978 621.636 528.414 620.92 528.001 620.032Z" fill="#144444"/>
<path id="D" d="M472.007 598.878C471.444 595.992 471.734 593.582 472.878 591.647C474.022 589.712 475.968 588.477 478.717 587.94C479.633 587.762 480.525 587.707 481.394 587.775C482.273 587.889 483.081 588.135 483.821 588.514C484.56 588.893 485.208 589.408 485.763 590.061C486.272 590.722 486.621 591.534 486.808 592.495C486.88 592.862 486.92 593.187 486.927 593.471C486.898 593.809 486.851 594.175 486.785 594.568C486.082 594.135 485.296 594.003 484.426 594.173C483.876 594.28 483.49 594.498 483.269 594.826C483.002 595.164 482.817 595.556 482.715 596.004C482.621 596.498 482.6 597.001 482.652 597.514C482.714 598.073 482.794 598.604 482.892 599.108L488.119 625.903C488.217 626.406 488.338 626.906 488.482 627.401C488.635 627.941 488.844 628.4 489.107 628.777C489.38 629.199 489.703 629.516 490.078 629.728C490.406 629.95 490.845 630.007 491.395 629.899C492.265 629.73 492.944 629.312 493.432 628.646C493.85 629.325 494.117 629.963 494.233 630.558C494.376 631.291 494.4 632.023 494.305 632.755C494.173 633.541 493.886 634.263 493.444 634.92C493.001 635.577 492.399 636.146 491.637 636.627C490.839 637.164 489.821 637.552 488.584 637.794C487.21 638.062 485.947 638.046 484.795 637.748C483.607 637.504 482.561 637.019 481.659 636.292C480.765 635.61 480.023 634.733 479.433 633.659C478.807 632.64 478.368 631.49 478.118 630.207L472.007 598.878ZM486.755 586.372L487.442 586.238C488.633 586.006 489.801 585.897 490.944 585.912C492.088 585.926 493.154 586.146 494.14 586.572C495.081 587.007 495.929 587.697 496.684 588.643C497.393 589.599 497.913 590.924 498.244 592.618L506.379 634.322L505.279 634.537C504.18 634.751 503.077 634.824 501.97 634.754C500.872 634.731 499.848 634.479 498.898 633.999C497.958 633.564 497.133 632.869 496.423 631.914C495.714 630.959 495.199 629.657 494.877 628.008L486.755 586.372Z" fill="#144444"/>
<path id="O_2" d="M435.894 629.03C435.864 629.542 435.88 630.058 435.943 630.576C435.957 631.137 436.068 631.635 436.276 632.068C436.435 632.545 436.715 632.935 437.118 633.239C437.474 633.541 438.002 633.712 438.701 633.754C439.586 633.806 440.348 633.57 440.986 633.047C441.222 633.809 441.322 634.493 441.286 635.098C441.242 635.844 441.083 636.559 440.809 637.244C440.485 637.973 440.027 638.6 439.435 639.126C438.843 639.652 438.118 640.054 437.261 640.33C436.354 640.651 435.271 640.774 434.013 640.699C431.218 640.534 429.101 639.568 427.663 637.8C426.225 636.032 425.592 633.681 425.765 630.746L427.692 598.113C427.807 596.156 428.179 594.612 428.807 593.481C429.434 592.349 430.255 591.509 431.269 590.961C432.234 590.457 433.328 590.148 434.55 590.033C435.725 589.915 436.942 589.894 438.2 589.968L435.894 629.03ZM444.351 602.182C444.381 601.669 444.39 601.132 444.376 600.57C444.313 600.052 444.202 599.555 444.043 599.078C443.835 598.645 443.553 598.278 443.197 597.976C442.794 597.672 442.243 597.499 441.544 597.458C440.706 597.409 439.944 597.644 439.259 598.165C439.141 597.784 439.069 597.429 439.041 597.1C438.965 596.815 438.937 596.486 438.959 596.113C439.003 595.368 439.187 594.631 439.51 593.902C439.785 593.217 440.218 592.612 440.81 592.086C441.402 591.559 442.151 591.136 443.058 590.816C443.916 590.539 444.974 590.438 446.232 590.512C449.027 590.677 451.144 591.644 452.582 593.412C454.02 595.179 454.653 597.531 454.48 600.466L452.553 633.099C452.438 635.055 452.066 636.6 451.438 637.731C450.811 638.863 450.014 639.681 449.05 640.185C448.036 640.733 446.941 641.065 445.765 641.183C444.543 641.298 443.303 641.318 442.045 641.244L444.351 602.182Z" fill="#144444"/>
<path id="H_4" d="M397.418 635.302L396.353 634.957C395.287 634.611 394.288 634.139 393.353 633.542C392.404 632.988 391.631 632.271 391.034 631.391C390.422 630.554 390.038 629.547 389.881 628.367C389.724 627.188 389.905 625.799 390.423 624.201L400.946 591.776C401.479 590.134 402.177 588.888 403.041 588.04C403.861 587.178 404.786 586.595 405.817 586.292C406.803 585.974 407.887 585.884 409.069 586.022C410.206 586.146 411.329 586.388 412.439 586.748L413.105 586.964L397.418 635.302ZM380.972 629.965L379.907 629.62C378.842 629.274 377.842 628.802 376.907 628.205C375.959 627.651 375.185 626.934 374.588 626.054C373.976 625.217 373.592 624.21 373.435 623.03C373.278 621.851 373.459 620.462 373.978 618.864L384.5 586.439C385.033 584.797 385.732 583.551 386.596 582.703C387.415 581.841 388.34 581.258 389.371 580.955C390.357 580.637 391.441 580.547 392.623 580.685C393.76 580.809 394.884 581.051 395.993 581.411L396.659 581.627L380.972 629.965ZM393.73 611.291L387.671 609.325C388.151 608.451 388.631 607.65 389.113 606.923C389.579 606.24 390.128 605.683 390.76 605.25C391.332 604.846 392.009 604.575 392.79 604.436C393.556 604.342 394.45 604.46 395.471 604.791L395.804 604.899L393.73 611.291Z" fill="#144444"/>
<path id="*_2" d="M321.588 581.868C322.048 581.828 322.461 581.808 322.825 581.809C322.737 581.188 322.667 580.581 322.615 579.989L327.904 579.673C329.058 579.605 330.043 579.7 330.861 579.96C331.643 580.189 332.374 580.588 333.053 581.158C333.983 581.938 334.7 582.935 335.205 584.149C335.709 585.363 336.028 586.727 336.161 588.239L331.571 588.593L332.068 593.12C330.723 593.272 329.379 593.241 328.035 593.028C326.692 592.815 325.501 592.274 324.464 591.404C323.856 590.894 323.35 590.227 322.946 589.401C322.477 588.581 322.175 587.597 322.041 586.45L321.588 581.868ZM334.426 568.516C334.559 570.028 334.483 571.426 334.198 572.71C333.914 573.994 333.382 575.1 332.602 576.03C332.063 576.674 331.398 577.213 330.608 577.647C329.818 578.08 328.882 578.361 327.8 578.49L322.484 579.057C322.449 578.662 322.432 578.283 322.433 577.918C322.039 577.953 321.644 577.988 321.25 578.022L320.934 572.734C320.865 571.58 320.961 570.595 321.22 569.777C321.45 568.995 321.849 568.264 322.419 567.584C323.198 566.655 324.195 565.938 325.41 565.433C326.624 564.929 327.987 564.61 329.499 564.477L329.898 569.013L334.426 568.516ZM314.146 579.74C313.029 579.839 312.043 579.743 311.19 579.454C310.27 579.17 309.489 578.759 308.845 578.219C307.844 577.38 307.121 576.317 306.676 575.031C306.196 573.715 305.898 572.4 305.783 571.085L310.328 570.784L309.776 566.212C311.289 566.079 312.686 566.155 313.97 566.439C315.254 566.724 316.361 567.256 317.291 568.035C317.97 568.605 318.527 569.285 318.961 570.075C319.395 570.865 319.658 571.786 319.75 572.838L320.317 578.154C319.726 578.206 319.131 578.225 318.534 578.212C318.598 578.57 318.633 578.965 318.638 579.395L314.146 579.74ZM318.769 580.328C318.827 580.985 318.867 581.627 318.889 582.255C319.409 582.143 319.998 582.058 320.656 582L321.001 586.491C321.099 587.609 321.022 588.61 320.768 589.493C320.449 590.383 320.019 591.149 319.48 591.793C318.64 592.794 317.577 593.517 316.292 593.961C314.976 594.441 313.66 594.739 312.345 594.855L312.09 590.256L307.517 590.808C307.366 589.463 307.397 588.119 307.61 586.775C307.823 585.431 308.364 584.241 309.234 583.203C309.743 582.595 310.426 582.072 311.282 581.632C312.072 581.198 313.04 580.914 314.188 580.78L318.769 580.328Z" fill="#144444"/>
</g>
<g id="SOFTWARE DEV">
<path id="S" d="M268.772 634.483L268.114 633.961C267.273 633.294 266.505 632.535 265.81 631.685C265.114 630.835 264.589 629.883 264.235 628.827C263.947 627.764 263.917 626.638 264.146 625.449C264.403 624.224 265.054 622.953 266.099 621.637L273.323 612.536C274.367 611.22 275.442 610.316 276.548 609.823C277.683 609.294 278.786 609.067 279.858 609.143C280.995 609.212 282.057 609.488 283.042 609.973C284.028 610.457 284.941 611.033 285.782 611.701L286.44 612.223L268.772 634.483ZM250.745 640.194C251.644 639.061 252.589 638.321 253.579 637.975C254.598 637.592 255.577 637.446 256.518 637.537C257.458 637.628 258.319 637.895 259.101 638.336C259.911 638.741 260.573 639.147 261.084 639.553C261.523 639.901 261.86 640.228 262.094 640.533L259.918 643.274C258.845 644.627 258.838 645.724 259.898 646.565C260.227 646.826 260.545 646.989 260.851 647.053C261.157 647.118 261.525 647.142 261.955 647.126C261.833 647.505 261.598 647.914 261.25 648.353C260.938 648.82 260.681 649.182 260.478 649.438C260.129 649.877 259.679 650.294 259.127 650.689C258.574 651.085 257.941 651.357 257.228 651.506C256.58 651.647 255.829 651.617 254.975 651.416C254.122 651.215 253.22 650.738 252.27 649.983C251.283 649.2 250.554 648.354 250.084 647.445C249.651 646.564 249.385 645.698 249.287 644.846C249.255 643.986 249.357 643.144 249.594 642.319C249.868 641.524 250.252 640.815 250.745 640.194ZM275.541 632.26L276.199 632.782C277.004 633.42 277.753 634.165 278.449 635.015C279.181 635.894 279.692 636.865 279.98 637.928C280.334 638.983 280.382 640.123 280.124 641.349C279.896 642.538 279.259 643.79 278.215 645.106L270.991 654.208C269.946 655.523 268.857 656.446 267.722 656.975C266.616 657.468 265.494 657.68 264.357 657.611C263.286 657.535 262.239 657.24 261.216 656.727C260.23 656.242 259.336 655.681 258.531 655.043L257.873 654.521L275.541 632.26ZM293.502 626.407C292.574 627.577 291.615 628.335 290.625 628.682C289.635 629.028 288.67 629.156 287.73 629.064C286.789 628.973 285.913 628.725 285.103 628.32C284.321 627.879 283.675 627.455 283.163 627.049C282.724 626.7 282.388 626.374 282.153 626.069L284.329 623.327C285.403 621.975 285.409 620.878 284.349 620.036C284.02 619.775 283.703 619.613 283.396 619.548C283.09 619.484 282.722 619.46 282.292 619.476C282.414 619.096 282.631 618.673 282.943 618.205C283.291 617.767 283.567 617.419 283.77 617.164C284.118 616.725 284.568 616.308 285.121 615.912C285.673 615.516 286.273 615.248 286.921 615.107C287.635 614.959 288.419 614.985 289.272 615.185C290.126 615.386 291.027 615.864 291.978 616.618C292.965 617.401 293.675 618.233 294.108 619.113C294.578 620.022 294.829 620.907 294.862 621.767C294.96 622.619 294.858 623.461 294.555 624.293C294.317 625.118 293.967 625.823 293.502 626.407Z" fill="#144444"/>
<path id="O_3" d="M334.662 661.432C334.874 660.964 335.044 660.478 335.171 659.972C335.359 659.442 335.434 658.938 335.395 658.459C335.418 657.957 335.296 657.492 335.029 657.063C334.805 656.654 334.374 656.305 333.736 656.016C332.929 655.65 332.133 655.597 331.349 655.856C331.402 655.06 331.554 654.386 331.805 653.834C332.113 653.154 332.518 652.543 333.02 652.002C333.583 651.438 334.236 651.016 334.977 650.737C335.718 650.459 336.539 650.344 337.439 650.393C338.4 650.419 339.455 650.693 340.603 651.213C343.153 652.369 344.782 654.031 345.491 656.197C346.2 658.363 345.947 660.784 344.733 663.462L331.232 693.234C330.423 695.019 329.522 696.327 328.531 697.159C327.539 697.99 326.471 698.479 325.328 698.627C324.247 698.752 323.115 698.649 321.933 698.317C320.793 698.006 319.65 697.59 318.502 697.069L334.662 661.432ZM317.14 683.462C316.928 683.93 316.728 684.428 316.539 684.957C316.412 685.463 316.337 685.967 316.315 686.47C316.354 686.948 316.485 687.392 316.71 687.802C316.977 688.23 317.429 688.589 318.066 688.878C318.831 689.225 319.627 689.278 320.453 689.038C320.427 689.436 320.367 689.793 320.275 690.11C320.244 690.404 320.152 690.72 319.997 691.06C319.689 691.74 319.253 692.363 318.69 692.927C318.188 693.468 317.567 693.878 316.825 694.157C316.084 694.436 315.233 694.562 314.271 694.536C313.371 694.486 312.347 694.201 311.2 693.681C308.65 692.525 307.02 690.864 306.312 688.697C305.603 686.531 305.856 684.11 307.07 681.432L320.57 651.66C321.379 649.875 322.28 648.567 323.272 647.735C324.264 646.904 325.3 646.426 326.381 646.302C327.525 646.154 328.666 646.236 329.805 646.548C330.988 646.879 332.152 647.304 333.3 647.825L317.14 683.462Z" fill="#144444"/>
<path id="F" d="M383.293 722.661L382.605 722.53C381.413 722.305 380.289 721.973 379.231 721.536C378.174 721.098 377.267 720.499 376.508 719.738C375.796 718.986 375.264 718.03 374.913 716.872C374.609 715.722 374.617 714.298 374.938 712.602L381.276 679.106C381.588 677.455 382.096 676.15 382.8 675.191C383.504 674.232 384.325 673.532 385.263 673.093C386.21 672.607 387.233 672.349 388.331 672.319C389.437 672.244 390.541 672.31 391.641 672.518L392.742 672.727L383.293 722.661ZM390.152 694.322L396.273 695.48C396.073 696.534 395.799 697.48 395.451 698.317C395.149 699.162 394.703 699.885 394.115 700.486C393.58 701.05 392.912 701.446 392.109 701.674C391.306 701.902 390.331 701.907 389.185 701.69L388.772 701.612L390.152 694.322ZM406.568 682.111C406.29 683.578 405.794 684.695 405.079 685.462C404.364 686.23 403.569 686.792 402.694 687.148C401.819 687.505 400.929 687.693 400.023 687.712C399.125 687.684 398.356 687.61 397.714 687.488C397.164 687.384 396.714 687.252 396.364 687.091L396.963 683.927C397.119 683.101 397.039 682.397 396.721 681.815C396.413 681.187 395.869 680.799 395.089 680.651C394.218 680.486 393.432 680.623 392.732 681.06C392.664 680.667 392.633 680.329 392.639 680.045C392.7 679.724 392.765 679.38 392.834 679.013C392.956 678.372 393.201 677.705 393.569 677.015C393.983 676.334 394.498 675.742 395.115 675.242C395.779 674.75 396.557 674.399 397.452 674.188C398.401 673.94 399.472 673.929 400.664 674.154C401.627 674.337 402.514 674.671 403.324 675.157C404.135 675.642 404.805 676.244 405.334 676.962C405.863 677.679 406.233 678.485 406.444 679.38C406.709 680.238 406.75 681.148 406.568 682.111Z" fill="#144444"/>
<path id="T_2" d="M460.115 732.811L459.417 732.865C458.208 732.959 457.035 732.933 455.901 732.787C454.766 732.641 453.733 732.3 452.802 731.764C451.918 731.224 451.155 730.441 450.513 729.414C449.918 728.383 449.554 727.007 449.42 725.286L446.13 682.924L447.247 682.837C448.364 682.75 449.468 682.805 450.56 683.001C451.648 683.15 452.636 683.518 453.524 684.105C454.409 684.644 455.148 685.43 455.743 686.46C456.338 687.49 456.701 688.843 456.831 690.518L460.115 732.811ZM431.592 691.003C431.531 690.213 431.609 689.411 431.827 688.598C432.045 687.785 432.431 687.03 432.985 686.332C433.539 685.633 434.244 685.064 435.099 684.623C435.95 684.135 436.981 683.845 438.191 683.751C439.447 683.653 440.535 683.803 441.455 684.199C442.372 684.549 443.111 685.03 443.674 685.642C444.279 686.203 444.727 686.847 445.017 687.574C445.351 688.25 445.539 688.867 445.582 689.426C445.611 689.798 445.615 690.149 445.594 690.478C445.615 690.757 445.571 691.088 445.46 691.471C444.766 690.963 443.999 690.742 443.162 690.807C442.464 690.861 441.901 691.139 441.471 691.64C441.039 692.095 440.857 692.765 440.925 693.649L441.191 697.069C440.826 697.19 440.364 697.273 439.806 697.316C439.155 697.367 438.381 697.357 437.487 697.286C436.588 697.169 435.724 696.885 434.893 696.434C434.062 695.984 433.333 695.338 432.706 694.498C432.079 693.657 431.708 692.492 431.592 691.003ZM471.861 687.876C471.977 689.365 471.79 690.573 471.3 691.5C470.81 692.428 470.19 693.178 469.439 693.751C468.688 694.325 467.877 694.739 467.008 694.993C466.135 695.202 465.372 695.331 464.721 695.382C464.163 695.425 463.694 695.415 463.314 695.35L463.065 692.14C462.989 691.163 462.7 690.46 462.199 690.031C461.698 689.602 461.098 689.414 460.4 689.468C459.516 689.537 458.793 689.874 458.232 690.479C458.063 690.118 457.945 689.799 457.877 689.524C457.852 689.198 457.824 688.849 457.795 688.477C457.752 687.919 457.82 687.282 457.998 686.566C458.219 685.8 458.563 685.094 459.027 684.45C459.535 683.755 460.191 683.166 460.996 682.682C461.844 682.148 462.873 681.834 464.083 681.74C465.339 681.642 466.425 681.769 467.342 682.119C468.305 682.465 469.091 682.943 469.7 683.551C470.352 684.108 470.85 684.795 471.194 685.611C471.581 686.377 471.803 687.132 471.861 687.876Z" fill="#144444"/>
<path id="W" d="M548.688 707.728C548.892 708.199 549.127 708.682 549.393 709.177C549.64 709.629 549.943 710.032 550.3 710.386C550.681 710.678 551.099 710.879 551.553 710.987C552.05 711.076 552.619 710.981 553.261 710.703C554.032 710.368 554.605 709.814 554.981 709.04C555.258 709.326 555.483 709.61 555.656 709.891C555.853 710.111 556.026 710.392 556.175 710.734C556.472 711.419 556.641 712.16 556.682 712.956C556.747 713.691 556.634 714.427 556.344 715.164C556.053 715.901 555.576 716.617 554.911 717.312C554.271 717.947 553.373 718.515 552.217 719.017C549.649 720.132 547.324 720.226 545.242 719.299C543.16 718.372 541.534 716.56 540.362 713.863L527.255 683.687C526.586 682.146 526.273 680.781 526.316 679.592C526.359 678.403 526.645 677.363 527.174 676.472C527.684 675.538 528.385 674.75 529.277 674.108C530.192 673.405 531.164 672.831 532.191 672.384L533.218 671.938L548.688 707.728ZM536.615 725.793C534.047 726.909 531.722 727.003 529.64 726.076C527.601 725.13 525.996 723.308 524.825 720.612L511.718 690.435C511.048 688.894 510.735 687.529 510.778 686.34C510.822 685.152 511.108 684.111 511.636 683.22C512.147 682.286 512.847 681.499 513.739 680.857C514.612 680.173 515.562 679.607 516.589 679.161L517.617 678.715L533.15 714.477C533.354 714.948 533.59 715.431 533.856 715.926C534.146 716.36 534.469 716.753 534.826 717.107C535.208 717.399 535.625 717.599 536.079 717.707C536.576 717.797 537.146 717.702 537.788 717.423C538.558 717.089 539.131 716.534 539.508 715.761C539.785 716.047 540.01 716.331 540.183 716.612C540.38 716.832 540.553 717.113 540.702 717.455C540.98 718.097 541.14 718.816 541.181 719.613C541.246 720.348 541.142 721.105 540.87 721.885C540.58 722.621 540.081 723.347 539.373 724.061C538.69 724.714 537.771 725.291 536.615 725.793ZM561.261 694.33C562.153 696.385 562.661 698.199 562.785 699.773C562.91 701.348 562.742 702.718 562.282 703.884C561.803 705.008 561.103 705.974 560.182 706.781C559.26 707.588 558.2 708.252 557.002 708.772L556.617 708.94L542.729 676.966C542.059 675.425 541.746 674.06 541.789 672.871C541.833 671.682 542.119 670.642 542.647 669.751C543.158 668.817 543.859 668.029 544.75 667.387C545.623 666.703 546.573 666.138 547.6 665.691L548.628 665.245L561.261 694.33Z" fill="#144444"/>
<path id="A_3" d="M637.414 675.643C636.498 676.44 635.542 677.118 634.544 677.677C633.546 678.237 632.513 678.578 631.446 678.703C630.414 678.797 629.335 678.623 628.208 678.181C627.116 677.708 626.003 676.821 624.869 675.518L602.488 649.804C601.446 648.608 600.82 647.39 600.608 646.151C600.365 644.878 600.414 643.69 600.755 642.589C601.066 641.453 601.569 640.396 602.265 639.419C602.996 638.411 603.767 637.555 604.576 636.85L637.942 675.184L637.414 675.643ZM619.351 652.759L623.628 649.037C624.884 650.48 625.677 651.924 626.007 653.369C626.306 654.779 625.646 656.189 624.027 657.598L623.763 657.828L619.351 652.759ZM617.426 641.164C617.089 640.777 616.717 640.421 616.309 640.095C615.906 639.703 615.479 639.425 615.027 639.262C614.58 639.032 614.106 638.95 613.606 639.014C613.14 639.048 612.643 639.295 612.115 639.754C611.447 640.337 611.067 641.038 610.977 641.859C610.276 641.479 609.726 641.061 609.328 640.603C608.837 640.04 608.451 639.418 608.167 638.737C607.888 637.99 607.776 637.221 607.831 636.431C607.885 635.641 608.122 634.847 608.541 634.049C608.965 633.185 609.652 632.34 610.603 631.513C611.659 630.593 612.76 629.975 613.907 629.658C615.058 629.274 616.206 629.172 617.351 629.351C618.466 629.494 619.547 629.883 620.595 630.518C621.647 631.087 622.602 631.864 623.46 632.85L650.667 664.108C649.716 664.935 648.722 665.677 647.684 666.333C646.682 666.958 645.627 667.381 644.52 667.602C643.418 667.757 642.272 667.578 641.084 667.066C639.896 666.554 638.658 665.558 637.371 664.08L617.426 641.164Z" fill="#144444"/>
<path id="R_2" d="M686.219 618.275C687.561 619.205 688.487 620.245 688.997 621.393C689.507 622.542 689.751 623.705 689.73 624.882C689.67 626.033 689.409 627.187 688.948 628.344C688.514 629.462 687.991 630.462 687.379 631.344L653.955 608.173C651.271 606.312 649.625 604.262 649.019 602.025C648.412 599.787 648.907 597.518 650.502 595.217C651.299 594.066 652.143 593.259 653.031 592.797C653.92 592.334 654.804 592.123 655.684 592.165C656.59 592.169 657.46 592.347 658.295 592.698C659.092 593.023 659.816 593.412 660.468 593.864C660.813 594.103 661.036 594.314 661.136 594.498C660.369 594.704 659.746 595.152 659.267 595.842C658.868 596.417 658.664 596.957 658.655 597.462C658.634 597.902 658.73 598.337 658.942 598.768C659.143 599.134 659.427 599.502 659.796 599.871C660.191 600.202 660.619 600.527 661.079 600.846L686.219 618.275ZM654.924 589.083L655.443 588.336C656.958 586.15 658.898 584.826 661.262 584.364C663.589 583.875 666.036 584.522 668.606 586.303L674.646 590.491C677.178 592.246 678.656 594.208 679.083 596.377C679.536 598.509 679.19 600.483 678.043 602.3L677.764 602.703C677.02 603.777 676.203 604.545 675.314 605.008C674.426 605.471 673.534 605.733 672.64 605.794C671.734 605.791 670.869 605.646 670.046 605.359C669.184 605.045 668.408 604.649 667.718 604.171C668.134 604.062 668.479 603.932 668.754 603.782C668.99 603.605 669.348 603.171 669.826 602.481C670.172 601.982 670.303 601.506 670.221 601.051C670.127 600.532 669.909 600.068 669.567 599.661C669.251 599.215 668.844 598.819 668.346 598.473C667.835 598.063 667.369 597.711 666.947 597.419L654.924 589.083ZM701.737 610.634L701.338 611.21C700.646 612.207 699.859 613.138 698.976 614.002C698.12 614.828 697.163 615.47 696.106 615.93C695.076 616.352 693.947 616.506 692.719 616.393C691.491 616.28 690.168 615.731 688.749 614.748L676.553 606.293L677.191 605.372C677.856 604.413 678.636 603.534 679.53 602.735C680.387 601.909 681.336 601.318 682.378 600.962C683.409 600.54 684.524 600.405 685.725 600.557C686.927 600.708 688.218 601.262 689.598 602.219L701.737 610.634Z" fill="#144444"/>
<path id="E_3" d="M732.711 560.385L732.459 561.039C732.023 562.171 731.495 563.218 730.875 564.179C730.255 565.141 729.503 565.926 728.618 566.536C727.75 567.102 726.715 567.453 725.512 567.59C724.326 567.683 722.927 567.42 721.315 566.8L689.502 554.552C687.934 553.949 686.741 553.215 685.924 552.35C685.107 551.485 684.566 550.552 684.301 549.55C683.994 548.531 683.923 547.479 684.091 546.394C684.216 545.292 684.479 544.218 684.881 543.173L685.284 542.127L732.711 560.385ZM706.063 548.552L708.301 542.738C709.303 543.123 710.184 543.562 710.944 544.055C711.722 544.504 712.353 545.072 712.839 545.759C713.297 546.386 713.567 547.115 713.647 547.946C713.727 548.777 713.558 549.737 713.139 550.825L712.988 551.217L706.063 548.552ZM731.947 543.665C732.687 543.95 733.377 544.365 734.017 544.912C734.657 545.458 735.173 546.132 735.564 546.932C735.913 547.717 736.123 548.598 736.197 549.576C736.27 550.555 736.089 551.61 735.653 552.742C735.335 553.57 734.894 554.325 734.331 555.008C733.724 555.675 733.042 556.212 732.285 556.621C731.544 556.986 730.75 557.23 729.902 557.354C729.071 557.434 728.22 557.307 727.349 556.971C727.001 556.837 726.696 556.72 726.435 556.619C726.147 556.458 725.854 556.245 725.555 555.981C726.296 555.616 726.826 555.019 727.144 554.192C727.396 553.539 727.409 552.919 727.185 552.332C726.917 551.729 726.369 551.268 725.542 550.95L722.341 549.718C722.388 549.336 722.512 548.883 722.713 548.361C722.948 547.751 723.312 547.066 723.805 546.306C724.254 545.528 724.86 544.862 725.624 544.306C726.389 543.75 727.307 543.378 728.379 543.191C729.408 542.987 730.597 543.145 731.947 543.665ZM696.997 530.21C698.391 530.747 699.401 531.435 700.027 532.277C700.653 533.118 701.064 534.001 701.258 534.925C701.452 535.85 701.477 536.76 701.332 537.654C701.144 538.532 700.933 539.276 700.698 539.886C700.497 540.408 700.286 540.827 700.065 541.142L697.06 539.985C696.189 539.65 695.452 539.616 694.848 539.884C694.218 540.091 693.769 540.544 693.501 541.24C693.183 542.068 693.176 542.865 693.48 543.633C693.082 543.629 692.743 543.599 692.465 543.542C692.16 543.424 691.834 543.299 691.485 543.165C690.963 542.963 690.417 542.628 689.847 542.159C689.251 541.629 688.762 541.016 688.38 540.319C687.972 539.562 687.722 538.716 687.632 537.781C687.515 536.786 687.675 535.722 688.111 534.59C688.463 533.675 688.95 532.863 689.574 532.153C690.197 531.443 690.909 530.892 691.71 530.5C692.511 530.108 693.371 529.889 694.289 529.842C695.18 529.735 696.083 529.858 696.997 530.21Z" fill="#144444"/>
<path id="*_3" d="M724.043 456.429C724.371 456.754 724.652 457.057 724.886 457.336C725.304 456.868 725.723 456.423 726.141 456.001L729.795 459.839C730.591 460.676 731.154 461.491 731.483 462.283C731.813 463.028 731.979 463.844 731.982 464.731C731.986 465.944 731.687 467.136 731.084 468.304C730.482 469.473 729.646 470.596 728.576 471.673L725.345 468.394L722.206 471.695C721.223 470.765 720.379 469.718 719.675 468.554C718.971 467.39 718.617 466.131 718.612 464.778C718.609 463.984 718.793 463.167 719.163 462.326C719.487 461.438 720.044 460.573 720.834 459.73L724.043 456.429ZM742.527 457.624C741.458 458.701 740.34 459.545 739.176 460.156C738.011 460.767 736.822 461.074 735.609 461.078C734.769 461.081 733.929 460.921 733.087 460.597C732.246 460.274 731.428 459.74 730.632 458.996L726.769 455.299C727.048 455.018 727.327 454.761 727.606 454.526C727.325 454.247 727.044 453.968 726.763 453.689L730.601 450.036C731.438 449.24 732.253 448.677 733.045 448.347C733.79 448.018 734.606 447.852 735.493 447.849C736.706 447.845 737.897 448.144 739.066 448.746C740.235 449.349 741.358 450.185 742.435 451.255L739.226 454.486L742.527 457.624ZM720.868 449.37C720.072 448.579 719.509 447.765 719.18 446.926C718.803 446.04 718.614 445.178 718.611 444.338C718.606 443.031 718.952 441.793 719.648 440.624C720.344 439.408 721.156 438.332 722.087 437.395L725.248 440.674L728.386 437.304C729.463 438.373 730.307 439.49 730.918 440.655C731.529 441.819 731.836 443.008 731.84 444.222C731.843 445.108 731.683 445.972 731.359 446.813C731.036 447.654 730.502 448.45 729.758 449.199L726.061 453.062C725.64 452.643 725.241 452.201 724.866 451.736C724.634 452.017 724.355 452.298 724.029 452.579L720.868 449.37ZM723.402 453.281C722.937 453.749 722.472 454.194 722.007 454.616C722.428 454.941 722.872 455.336 723.341 455.801L720.132 458.962C719.341 459.758 718.526 460.345 717.688 460.721C716.802 461.051 715.939 461.217 715.099 461.22C713.793 461.225 712.555 460.879 711.386 460.183C710.17 459.487 709.094 458.674 708.157 457.744L711.506 454.582L708.135 451.444C709.065 450.461 710.112 449.617 711.277 448.913C712.441 448.209 713.7 447.855 715.053 447.85C715.846 447.847 716.687 448.031 717.575 448.401C718.416 448.725 719.258 449.282 720.101 450.072L723.402 453.281Z" fill="#144444"/>
<path id="D_2" d="M733.716 330.723C736.441 329.622 738.863 329.448 740.98 330.203C743.097 330.958 744.68 332.634 745.73 335.229C746.079 336.095 746.304 336.961 746.402 337.827C746.457 338.71 746.369 339.551 746.138 340.349C745.907 341.148 745.524 341.881 744.989 342.55C744.437 343.176 743.707 343.673 742.798 344.04C742.452 344.18 742.14 344.281 741.863 344.343C741.525 344.378 741.157 344.401 740.758 344.412C741.05 343.639 741.03 342.842 740.698 342.02C740.488 341.501 740.201 341.164 739.836 341.009C739.454 340.811 739.034 340.705 738.574 340.689C738.072 340.691 737.574 340.766 737.08 340.915C736.543 341.082 736.037 341.261 735.561 341.454L710.251 351.684C709.775 351.877 709.308 352.091 708.849 352.326C708.347 352.58 707.937 352.871 707.617 353.202C707.255 353.55 707.005 353.928 706.868 354.335C706.713 354.7 706.741 355.142 706.95 355.661C707.283 356.483 707.822 357.07 708.569 357.423C707.981 357.962 707.406 358.346 706.844 358.573C706.152 358.853 705.437 359.016 704.701 359.062C703.904 359.082 703.141 358.938 702.412 358.628C701.683 358.319 701.009 357.836 700.392 357.18C699.713 356.497 699.138 355.572 698.666 354.404C698.141 353.106 697.916 351.863 697.989 350.676C698.002 349.463 698.28 348.344 698.822 347.319C699.321 346.312 700.041 345.417 700.983 344.634C701.864 343.825 702.91 343.175 704.122 342.686L733.716 330.723ZM748.799 342.823L749.061 343.472C749.516 344.597 749.845 345.722 750.048 346.848C750.252 347.974 750.238 349.061 750.008 350.111C749.761 351.117 749.244 352.08 748.459 353.002C747.656 353.88 746.454 354.643 744.853 355.29L705.46 371.213L705.04 370.175C704.62 369.136 704.339 368.067 704.197 366.967C704.011 365.884 704.063 364.831 704.354 363.808C704.602 362.802 705.127 361.859 705.93 360.981C706.733 360.103 707.913 359.349 709.47 358.72L748.799 342.823Z" fill="#144444"/>
<path id="E_4" d="M717.156 273.434L717.566 274.001C718.277 274.984 718.866 275.998 719.333 277.042C719.8 278.087 720.048 279.146 720.076 280.22C720.076 281.256 719.806 282.315 719.264 283.398C718.695 284.443 717.711 285.471 716.312 286.483L688.687 306.458C687.326 307.443 686.06 308.042 684.89 308.255C683.719 308.467 682.642 308.411 681.658 308.086C680.636 307.788 679.717 307.273 678.899 306.54C678.043 305.834 677.287 305.027 676.63 304.12L675.974 303.212L717.156 273.434ZM692.697 289.306L689.047 284.257C689.916 283.628 690.765 283.13 691.593 282.762C692.394 282.355 693.214 282.136 694.055 282.104C694.83 282.062 695.588 282.234 696.328 282.62C697.068 283.006 697.78 283.672 698.464 284.618L698.71 284.958L692.697 289.306ZM702.727 264.949C703.37 264.484 704.095 264.133 704.902 263.895C705.709 263.657 706.555 263.592 707.44 263.701C708.287 263.837 709.14 264.141 710 264.614C710.86 265.086 711.646 265.814 712.357 266.797C712.876 267.516 713.269 268.297 713.534 269.142C713.761 270.014 713.84 270.879 713.769 271.736C713.67 272.556 713.442 273.355 713.083 274.133C712.696 274.873 712.125 275.516 711.369 276.063C711.066 276.282 710.802 276.473 710.575 276.638C710.283 276.791 709.944 276.921 709.56 277.026C709.658 276.206 709.447 275.437 708.928 274.719C708.518 274.151 708.006 273.802 707.392 273.67C706.74 273.565 706.055 273.772 705.337 274.292L702.557 276.302C702.263 276.054 701.952 275.703 701.624 275.249C701.241 274.72 700.865 274.041 700.497 273.213C700.091 272.413 699.863 271.541 699.814 270.597C699.766 269.653 699.955 268.681 700.383 267.68C700.774 266.707 701.555 265.797 702.727 264.949ZM672.38 286.893C673.59 286.018 674.719 285.548 675.765 285.482C676.812 285.416 677.776 285.554 678.656 285.896C679.537 286.239 680.313 286.714 680.984 287.323C681.617 287.96 682.125 288.543 682.508 289.072C682.836 289.526 683.071 289.931 683.215 290.289L680.605 292.175C679.849 292.722 679.418 293.322 679.314 293.973C679.144 294.614 679.278 295.237 679.715 295.842C680.235 296.561 680.899 297.002 681.708 297.165C681.488 297.498 681.278 297.765 681.078 297.967C680.814 298.158 680.53 298.363 680.227 298.582C679.774 298.91 679.195 299.185 678.491 299.406C677.722 299.616 676.941 299.691 676.149 299.631C675.291 299.56 674.446 299.307 673.613 298.872C672.716 298.427 671.911 297.713 671.2 296.73C670.626 295.936 670.212 295.084 669.957 294.174C669.702 293.264 669.629 292.367 669.738 291.482C669.846 290.597 670.132 289.757 670.594 288.962C670.991 288.157 671.586 287.467 672.38 286.893Z" fill="#144444"/>
<path id="V" d="M666.944 227.824C667.276 227.432 667.605 227.007 667.931 226.55C668.192 226.098 668.401 225.633 668.561 225.157C668.654 224.685 668.649 224.222 668.545 223.767C668.405 223.282 668.069 222.813 667.535 222.361C666.894 221.818 666.143 221.549 665.282 221.554C665.417 221.179 665.572 220.851 665.747 220.572C665.857 220.298 666.033 220.019 666.274 219.734C666.757 219.164 667.346 218.685 668.042 218.296C668.673 217.913 669.383 217.688 670.172 217.623C670.961 217.558 671.815 217.669 672.733 217.957C673.585 218.251 674.491 218.805 675.453 219.619C677.589 221.429 678.702 223.473 678.791 225.75C678.881 228.027 677.975 230.288 676.075 232.531L649.29 264.151C648.329 263.337 647.463 262.481 646.693 261.585C645.888 260.658 645.326 259.662 645.006 258.596C644.62 257.535 644.59 256.378 644.917 255.126C645.244 253.874 646.041 252.5 647.308 251.005L666.944 227.824ZM636.508 253.14L635.653 252.417C634.799 251.693 634.052 250.877 633.414 249.97C632.746 249.098 632.303 248.141 632.084 247.1C631.835 246.094 631.862 245.016 632.164 243.865C632.466 242.714 633.16 241.498 634.246 240.216L649.312 222.429C650.76 220.72 652.163 219.462 653.52 218.654C654.877 217.846 656.18 217.391 657.429 217.287C658.649 217.219 659.824 217.42 660.956 217.889C662.087 218.359 663.152 219.015 664.149 219.86L664.469 220.131L636.508 253.14Z" fill="#144444"/>
<path id="E_5" d="M614.246 172.049L614.873 172.361C615.959 172.9 616.952 173.524 617.852 174.231C618.751 174.938 619.463 175.76 619.987 176.698C620.47 177.615 620.723 178.678 620.748 179.889C620.73 181.078 620.337 182.446 619.57 183.993L604.409 214.526C603.662 216.031 602.82 217.15 601.883 217.883C600.946 218.616 599.966 219.068 598.944 219.237C597.901 219.449 596.847 219.421 595.782 219.152C594.696 218.926 593.651 218.563 592.648 218.065L591.645 217.567L614.246 172.049ZM599.979 197.477L594.399 194.707C594.876 193.746 595.396 192.909 595.957 192.198C596.477 191.466 597.101 190.891 597.831 190.471C598.497 190.073 599.248 189.872 600.083 189.87C600.918 189.868 601.858 190.126 602.902 190.645L603.279 190.832L599.979 197.477ZM597.527 171.251C597.879 170.54 598.358 169.892 598.961 169.306C599.565 168.72 600.284 168.269 601.117 167.954C601.931 167.68 602.828 167.552 603.809 167.57C604.79 167.589 605.823 167.867 606.91 168.407C607.704 168.801 608.415 169.311 609.043 169.935C609.65 170.601 610.122 171.33 610.458 172.122C610.752 172.894 610.922 173.707 610.966 174.563C610.968 175.398 610.762 176.233 610.347 177.069C610.181 177.403 610.035 177.696 609.911 177.947C609.724 178.219 609.484 178.491 609.193 178.763C608.899 177.991 608.354 177.408 607.56 177.014C606.933 176.703 606.317 176.631 605.713 176.8C605.087 177.011 604.577 177.513 604.183 178.307L602.658 181.379C602.282 181.297 601.843 181.131 601.341 180.882C600.756 180.591 600.108 180.165 599.397 179.604C598.665 179.084 598.058 178.418 597.576 177.605C597.093 176.793 596.809 175.844 596.722 174.759C596.615 173.716 596.883 172.546 597.527 171.251ZM580.872 204.793C581.536 203.456 582.316 202.515 583.212 201.97C584.108 201.424 585.025 201.098 585.964 200.991C586.903 200.884 587.811 200.944 588.688 201.172C589.544 201.441 590.265 201.72 590.85 202.011C591.352 202.26 591.749 202.509 592.042 202.759L590.61 205.643C590.195 206.479 590.093 207.21 590.303 207.835C590.451 208.482 590.859 208.971 591.528 209.303C592.322 209.697 593.116 209.779 593.908 209.547C593.867 209.943 593.806 210.278 593.723 210.549C593.578 210.842 593.422 211.155 593.256 211.49C593.007 211.991 592.622 212.504 592.102 213.027C591.519 213.571 590.863 214.001 590.133 214.316C589.341 214.652 588.476 214.821 587.536 214.824C586.535 214.848 585.491 214.59 584.404 214.05C583.526 213.614 582.763 213.053 582.114 212.366C581.465 211.679 580.983 210.919 580.667 210.085C580.352 209.251 580.214 208.375 580.253 207.456C580.23 206.559 580.436 205.671 580.872 204.793Z" fill="#144444"/>
<path id="L" d="M550.448 143.569L551.13 143.728C552.312 144.003 553.422 144.381 554.46 144.862C555.498 145.343 556.38 145.979 557.106 146.771C557.787 147.553 558.278 148.529 558.58 149.702C558.837 150.863 558.77 152.285 558.378 153.967L548.749 195.351L547.659 195.098C546.568 194.844 545.531 194.459 544.549 193.943C543.557 193.473 542.726 192.824 542.055 191.997C541.375 191.216 540.906 190.244 540.649 189.083C540.393 187.921 540.455 186.522 540.835 184.886L550.448 143.569ZM533.994 146.64C534.174 145.868 534.513 145.132 535.011 144.433C535.463 143.724 536.059 143.12 536.798 142.621C537.481 142.157 538.325 141.826 539.329 141.629C540.288 141.421 541.335 141.449 542.471 141.713L542.744 141.777C543.971 142.062 544.946 142.505 545.669 143.104C546.382 143.749 546.942 144.43 547.35 145.148C547.702 145.901 547.912 146.645 547.981 147.379C547.993 148.149 547.936 148.806 547.809 149.352C547.725 149.715 547.651 150.033 547.587 150.306C547.468 150.614 547.298 150.934 547.077 151.265C546.613 150.582 545.949 150.141 545.085 149.94C544.403 149.781 543.788 149.853 543.238 150.157C542.678 150.505 542.297 151.112 542.096 151.975L541.319 155.316C541.217 155.34 540.917 155.294 540.417 155.178C539.861 155.096 539.424 155.019 539.105 154.945C538.605 154.828 537.99 154.589 537.26 154.228C536.519 153.912 535.866 153.424 535.3 152.766C534.689 152.097 534.24 151.249 533.951 150.224C533.652 149.244 533.667 148.049 533.994 146.64Z" fill="#144444"/>
<path id="O_4" d="M476.134 169.515C476.141 170.028 476.194 170.541 476.294 171.053C476.349 171.612 476.495 172.1 476.734 172.517C476.927 172.981 477.235 173.35 477.659 173.625C478.036 173.9 478.574 174.033 479.274 174.023C480.161 174.011 480.904 173.722 481.503 173.153C481.793 173.896 481.942 174.571 481.95 175.178C481.96 175.924 481.853 176.649 481.629 177.352C481.359 178.103 480.948 178.761 480.395 179.329C479.843 179.896 479.149 180.349 478.313 180.687C477.431 181.072 476.361 181.273 475.101 181.29C472.301 181.327 470.12 180.516 468.558 178.857C466.996 177.197 466.195 174.898 466.156 171.958L465.72 139.271C465.694 137.311 465.953 135.744 466.497 134.57C467.042 133.396 467.8 132.499 468.771 131.88C469.697 131.307 470.766 130.92 471.976 130.717C473.14 130.515 474.352 130.405 475.612 130.388L476.134 169.515ZM482.629 142.126C482.622 141.612 482.592 141.076 482.538 140.517C482.438 140.005 482.291 139.517 482.098 139.053C481.859 138.636 481.551 138.29 481.174 138.015C480.751 137.74 480.189 137.608 479.489 137.617C478.649 137.628 477.906 137.918 477.26 138.487C477.115 138.116 477.017 137.767 476.966 137.441C476.869 137.162 476.818 136.836 476.813 136.463C476.803 135.716 476.933 134.968 477.203 134.217C477.427 133.514 477.816 132.879 478.368 132.312C478.921 131.744 479.638 131.268 480.519 130.883C481.355 130.545 482.403 130.368 483.662 130.351C486.462 130.314 488.643 131.125 490.205 132.784C491.768 134.443 492.568 136.743 492.608 139.682L493.043 172.37C493.07 174.329 492.81 175.896 492.266 177.07C491.722 178.244 490.987 179.118 490.061 179.69C489.089 180.31 488.021 180.721 486.857 180.923C485.646 181.126 484.411 181.235 483.151 181.252L482.629 142.126Z" fill="#144444"/>
<path id="P_2" d="M408.582 142.645C408.165 141.066 408.135 139.674 408.492 138.469C408.849 137.265 409.418 136.221 410.198 135.339C410.991 134.502 411.938 133.793 413.039 133.212C414.095 132.643 415.142 132.222 416.18 131.947L426.72 171.808C427.507 174.785 427.438 177.265 426.514 179.247C425.59 181.229 423.843 182.56 421.271 183.24C420.008 183.574 418.865 183.635 417.844 183.422C416.834 183.255 415.969 182.904 415.249 182.371C414.528 181.837 413.936 181.149 413.472 180.306C412.975 179.521 412.601 178.654 412.35 177.707L412.171 177.03C412.559 177.217 412.967 177.302 413.397 177.285C413.794 177.325 414.173 177.297 414.534 177.202C415.21 177.023 415.716 176.744 416.05 176.366C416.352 176.045 416.561 175.652 416.68 175.186C416.765 174.778 416.787 174.313 416.746 173.793C416.66 173.285 416.545 172.76 416.402 172.219L408.582 142.645ZM413.453 185.163C413.227 185.222 413.047 185.27 412.911 185.306C412.743 185.399 412.546 185.475 412.32 185.535C409.568 186.262 407.251 186.078 405.368 184.983C403.486 183.888 402.109 181.694 401.238 178.4L398.035 166.287C397.642 164.798 397.521 163.43 397.674 162.183C397.782 160.947 398.089 159.828 398.597 158.825C399.07 157.879 399.75 157.072 400.635 156.404C401.475 155.747 402.437 155.276 403.52 154.989C404.918 154.62 406.128 154.541 407.15 154.753C408.171 154.966 409.048 155.362 409.781 155.94C410.48 156.576 411.067 157.338 411.543 158.226C411.974 159.125 412.315 160.049 412.566 160.996C411.839 160.803 411.069 160.813 410.257 161.028C409.58 161.207 409.091 161.457 408.79 161.778C408.455 162.156 408.246 162.549 408.161 162.958C408.042 163.423 408.026 163.91 408.112 164.419C408.153 164.939 408.246 165.469 408.389 166.011L413.453 185.163Z" fill="#144444"/>
<path id="E_6" d="M337.661 155.829L338.277 155.497C339.346 154.922 340.428 154.472 341.525 154.146C342.622 153.82 343.704 153.715 344.772 153.828C345.8 153.964 346.814 154.372 347.816 155.051C348.777 155.753 349.667 156.864 350.485 158.384L366.649 188.399C367.445 189.878 367.872 191.212 367.929 192.4C367.986 193.589 367.788 194.649 367.336 195.581C366.906 196.555 366.274 197.399 365.44 198.113C364.628 198.869 363.729 199.512 362.742 200.043L361.756 200.574L337.661 155.829ZM350.173 182.165L344.688 185.119C344.179 184.174 343.797 183.267 343.541 182.398C343.244 181.551 343.135 180.708 343.214 179.871C343.274 179.096 343.544 178.368 344.024 177.685C344.505 177.002 345.258 176.384 346.286 175.831L346.655 175.632L350.173 182.165ZM327.35 169.014C326.974 168.316 326.721 167.551 326.591 166.72C326.461 165.888 326.509 165.041 326.733 164.179C326.98 163.357 327.394 162.551 327.975 161.761C328.557 160.97 329.382 160.288 330.45 159.712C331.231 159.292 332.057 159.006 332.93 158.854C333.824 158.744 334.692 158.78 335.532 158.963C336.332 159.169 337.094 159.5 337.818 159.959C338.5 160.439 339.063 161.09 339.505 161.912C339.682 162.241 339.837 162.528 339.97 162.775C340.084 163.084 340.168 163.437 340.221 163.832C339.422 163.627 338.632 163.734 337.851 164.154C337.235 164.486 336.821 164.948 336.609 165.539C336.419 166.171 336.535 166.877 336.955 167.658L338.581 170.678C338.297 170.937 337.908 171.2 337.415 171.465C336.84 171.775 336.118 172.058 335.248 172.314C334.401 172.611 333.507 172.722 332.565 172.646C331.623 172.57 330.684 172.254 329.749 171.698C328.835 171.183 328.036 170.288 327.35 169.014ZM345.106 201.987C344.398 200.673 344.08 199.492 344.153 198.446C344.226 197.4 344.489 196.463 344.945 195.634C345.4 194.806 345.973 194.1 346.665 193.515C347.38 192.971 348.025 192.545 348.6 192.235C349.093 191.969 349.526 191.789 349.899 191.694L351.425 194.53C351.868 195.351 352.405 195.857 353.037 196.047C353.651 196.299 354.286 196.249 354.943 195.895C355.724 195.474 356.249 194.874 356.517 194.093C356.818 194.355 357.055 194.599 357.228 194.823C357.383 195.111 357.549 195.419 357.726 195.748C357.992 196.241 358.188 196.851 358.314 197.578C358.422 198.368 358.393 199.152 358.229 199.929C358.046 200.77 357.684 201.574 357.143 202.342C356.584 203.174 355.77 203.877 354.702 204.452C353.839 204.917 352.94 205.216 352.004 205.348C351.069 205.481 350.169 205.435 349.307 205.211C348.444 204.987 347.649 204.593 346.922 204.031C346.176 203.531 345.571 202.85 345.106 201.987Z" fill="#144444"/>
<path id="R_3" d="M283.369 197.314C282.276 196.099 281.614 194.875 281.382 193.64C281.149 192.405 281.179 191.217 281.47 190.076C281.793 188.969 282.312 187.906 283.027 186.887C283.707 185.898 284.445 185.045 285.243 184.327L312.446 214.56C314.631 216.989 315.762 219.361 315.838 221.678C315.914 223.995 314.911 226.09 312.83 227.963C311.789 228.9 310.783 229.491 309.812 229.737C308.84 229.983 307.932 229.985 307.085 229.742C306.204 229.53 305.398 229.157 304.666 228.623C303.965 228.123 303.35 227.579 302.819 226.989C302.538 226.677 302.37 226.42 302.314 226.219C303.109 226.195 303.818 225.902 304.443 225.34C304.963 224.872 305.286 224.393 305.411 223.904C305.532 223.481 305.539 223.035 305.432 222.567C305.321 222.164 305.128 221.741 304.854 221.297C304.546 220.884 304.204 220.47 303.829 220.053L283.369 197.314ZM307.116 232.916L306.44 233.525C304.462 235.304 302.27 236.146 299.863 236.052C297.487 235.993 295.253 234.801 293.161 232.477L288.245 227.013C286.185 224.724 285.197 222.474 285.28 220.264C285.329 218.086 286.12 216.244 287.654 214.739L288.018 214.411C288.989 213.537 289.961 212.977 290.932 212.731C291.903 212.485 292.831 212.435 293.716 212.581C294.597 212.792 295.405 213.132 296.14 213.601C296.907 214.104 297.571 214.668 298.133 215.292C297.702 215.302 297.337 215.349 297.035 215.432C296.764 215.55 296.317 215.89 295.692 216.452C295.241 216.858 295.004 217.291 294.979 217.753C294.951 218.28 295.057 218.781 295.296 219.256C295.501 219.763 295.806 220.242 296.212 220.692C296.614 221.209 296.987 221.659 297.33 222.04L307.116 232.916ZM266.51 201.182L267.031 200.714C267.933 199.903 268.913 199.178 269.971 198.54C270.994 197.933 272.073 197.527 273.207 197.323C274.307 197.149 275.441 197.259 276.61 197.651C277.779 198.043 278.941 198.881 280.096 200.164L290.022 211.196L289.189 211.945C288.322 212.726 287.361 213.402 286.306 213.974C285.283 214.581 284.223 214.938 283.127 215.046C282.027 215.219 280.91 215.094 279.776 214.67C278.642 214.247 277.513 213.411 276.389 212.162L266.51 201.182Z" fill="#144444"/>
</g>
<path id="E_7" d="M454.928 495.441H452.928C449.461 495.441 446.128 495.108 442.928 494.441C439.728 493.775 436.861 492.575 434.328 490.841C431.928 489.108 429.928 486.708 428.328 483.641C426.861 480.575 426.128 476.575 426.128 471.641V374.241C426.128 369.441 426.861 365.508 428.328 362.441C429.794 359.375 431.728 356.975 434.128 355.241C436.528 353.375 439.261 352.108 442.328 351.441C445.394 350.641 448.528 350.241 451.728 350.241H454.928V495.441ZM459.128 412.241H476.928C476.928 415.308 476.661 418.108 476.128 420.641C475.728 423.175 474.861 425.441 473.528 427.441C472.328 429.308 470.661 430.775 468.528 431.841C466.394 432.908 463.661 433.441 460.328 433.441H459.128V412.241ZM498.728 476.241C498.728 478.508 498.328 480.775 497.528 483.041C496.728 485.308 495.461 487.375 493.728 489.241C491.994 490.975 489.861 492.441 487.328 493.641C484.794 494.841 481.794 495.441 478.328 495.441C475.794 495.441 473.328 495.041 470.928 494.241C468.528 493.308 466.394 492.041 464.528 490.441C462.794 488.841 461.328 486.975 460.128 484.841C459.061 482.708 458.528 480.308 458.528 477.641C458.528 476.575 458.528 475.641 458.528 474.841C458.661 473.908 458.928 472.908 459.328 471.841C461.061 473.441 463.194 474.241 465.728 474.241C467.728 474.241 469.394 473.641 470.728 472.441C472.061 471.108 472.728 469.175 472.728 466.641V456.841C473.794 456.575 475.128 456.441 476.728 456.441C478.594 456.441 480.794 456.708 483.328 457.241C485.861 457.641 488.261 458.575 490.528 460.041C492.794 461.508 494.728 463.575 496.328 466.241C497.928 468.775 498.728 472.108 498.728 476.241ZM498.728 369.241C498.728 373.508 497.928 376.908 496.328 379.441C494.728 381.975 492.794 383.975 490.528 385.441C488.261 386.908 485.861 387.908 483.328 388.441C480.794 388.841 478.594 389.041 476.728 389.041C475.128 389.041 473.794 388.908 472.728 388.641V379.441C472.728 376.775 472.061 374.775 470.728 373.441C469.528 371.975 467.861 371.241 465.728 371.241C463.194 371.241 461.061 372.041 459.328 373.641C458.928 372.575 458.661 371.641 458.528 370.841C458.528 369.908 458.528 368.908 458.528 367.841C458.528 366.241 458.861 364.441 459.528 362.441C460.328 360.308 461.461 358.375 462.928 356.641C464.528 354.775 466.528 353.241 468.928 352.041C471.461 350.708 474.461 350.041 477.928 350.041C480.728 350.041 483.394 350.508 485.928 351.441C488.461 352.375 490.661 353.708 492.528 355.441C494.394 357.175 495.861 359.241 496.928 361.641C498.128 363.908 498.728 366.441 498.728 369.241Z" fill="#144444"/>
</g>
</svg>
