<svg width="100" height="100" viewBox="0 0 100 100" fill="none" xmlns="http://www.w3.org/2000/svg">
<g clip-path="url(#clip0)">
<path d="M92.7094 49.25C92.706 46.3808 91.7524 43.5935 89.9975 41.3236C88.2426 39.0536 85.7852 37.4289 83.0094 36.7031L95.4594 0H33.7718L46.2593 36.8344C43.565 37.6175 41.1968 39.2522 39.509 41.4936C37.8213 43.7351 36.9048 46.4629 36.8969 49.2687C36.8969 53.6156 39.0625 57.4719 42.3687 59.8469C41.0452 61.7205 39.5342 63.4544 37.8593 65.0219C34.7761 67.9552 31.1714 70.2859 27.2312 71.8938C23.7468 69.5469 22.2531 65.3969 23.6031 61.7062C37.7625 57.2938 34.6375 36.4281 19.8281 36.3656C16.3885 36.3681 13.0905 37.7356 10.6583 40.1677C8.22618 42.5999 6.8587 45.8979 6.85622 49.3375C6.85622 52.8719 8.28434 56.1094 10.6156 58.4344C10.4031 58.825 10.2062 59.25 9.99372 59.6719C8.05934 63.675 5.85934 68.1844 5.01559 73.2469C3.34059 83.3875 6.09059 91.525 12.7312 96.1312C16.321 98.6644 20.6096 100.019 25.0031 100.006C32.6031 100.006 40.3375 96.1813 47.8062 92.4688C53.1437 89.8469 58.6437 87.0969 64.0469 85.7656C66.05 85.2781 68.1344 84.9875 70.3312 84.6562C74.7906 84.0219 79.3969 83.3562 83.5312 80.9469C85.8959 79.5955 87.9358 77.7425 89.5074 75.5182C91.0791 73.2938 92.1443 70.7521 92.6281 68.0719C93.3165 63.9889 92.6664 59.7927 90.775 56.1094C92.0281 54.1063 92.7125 51.7812 92.7125 49.2562L92.7094 49.25ZM87.0625 49.25C87.06 51.1828 86.2911 53.0358 84.9244 54.4025C83.5576 55.7692 81.7047 56.5381 79.7719 56.5406C72.8687 56.525 69.8437 47.8187 75.2594 43.5187L75.275 43.4906C75.5219 43.3125 75.7844 43.1312 76.025 42.9656C76.025 42.9656 76.075 42.9656 76.075 42.9375C76.1875 42.8719 76.3 42.7906 76.4156 42.725C76.45 42.725 76.4656 42.7094 76.4937 42.7094C76.6094 42.6437 76.7562 42.5969 76.9031 42.5312C77.05 42.4656 77.1937 42.4188 77.3125 42.3531C77.3406 42.3531 77.3594 42.3375 77.3906 42.3375C77.5062 42.3031 77.6375 42.2406 77.75 42.225C77.7656 42.225 77.8344 42.1906 77.8656 42.1906C78.0125 42.1562 78.125 42.125 78.2687 42.1063H78.2844L78.725 42.0094C78.7531 42.0094 78.8031 42.0094 78.8375 41.975C78.95 41.975 79.0656 41.9406 79.1969 41.9406H79.325C79.4719 41.9406 79.6156 41.925 79.7969 41.925H80.1719C80.2875 41.925 80.3844 41.925 80.4969 41.9406H80.5469C80.775 41.975 81.0187 42.0062 81.2469 42.075C82.8912 42.4238 84.3659 43.3268 85.424 44.633C86.4821 45.9391 87.0594 47.5691 87.0594 49.25H87.0625ZM41.8468 5.79688H87.3875L76.9375 36.6219C76.4969 36.7062 76.075 36.85 75.6344 36.9969L64.6344 14.5688L53.5968 36.8531C53.149 36.7198 52.6928 36.6164 52.2312 36.5438L41.8468 5.79688ZM62.55 46.7281C62.0158 44.0559 60.6469 41.6223 58.6406 39.7781L64.6312 27.6875L70.6843 40.0375C68.8332 41.8548 67.5694 44.1853 67.0562 46.7281H62.55ZM48.0469 42.1531C48.181 42.1163 48.3179 42.0902 48.4562 42.075H48.5344C48.65 42.0406 48.7625 42.0406 48.875 42.0094H48.9906C49.1031 42.0094 49.2031 41.975 49.3156 41.975H50.4375C50.5531 41.975 50.65 42.0094 50.7344 42.0094C50.7969 42.0094 50.8125 42.0094 50.8812 42.0438C50.9937 42.0781 51.0781 42.0781 51.1906 42.0938C51.225 42.0938 51.2562 42.0938 51.3187 42.1219L51.7094 42.2062H51.7437C51.8562 42.2406 51.9906 42.2719 52.1031 42.3344C52.1187 42.3344 52.1531 42.35 52.2156 42.35C52.3 42.3844 52.4125 42.4156 52.5125 42.4625C52.525 42.4625 52.5594 42.4969 52.5906 42.4969C52.7031 42.5625 52.8187 42.5969 52.9312 42.6437H52.9656C53.1013 42.6937 53.228 42.7655 53.3406 42.8563H53.375C53.4875 42.9062 53.6 42.9844 53.7156 43.0531C53.7437 43.0531 53.7437 43.0875 53.7781 43.0875C53.8937 43.1375 53.975 43.2344 54.0875 43.2844L54.1219 43.3188C54.4625 43.5781 54.7875 43.8688 55.1187 44.1656L55.1312 44.1812C56.4344 45.5469 57.1531 47.3531 57.1344 49.2219C56.825 58.6313 42.8593 58.6313 42.55 49.2219C42.5344 45.8875 44.8125 42.9719 48.05 42.1594L48.0469 42.1531ZM19.5468 41.9406C21.4829 41.9406 23.3397 42.7097 24.7087 44.0787C26.0777 45.4478 26.8468 47.3045 26.8468 49.2406C26.8468 51.1767 26.0777 53.0335 24.7087 54.4025C23.3397 55.7715 21.4829 56.5406 19.5468 56.5406C15.5312 56.5406 12.2562 53.2687 12.2562 49.25C12.2562 45.2313 15.5312 41.9406 19.5468 41.9406ZM86.8969 67.0594C86.5639 68.9097 85.8291 70.6645 84.7444 72.2001C83.6597 73.7356 82.2514 75.0146 80.6187 75.9469C77.4594 77.7687 73.5687 78.3562 69.5031 78.9219C67.2051 79.2156 64.9231 79.6234 62.6656 80.1438C56.6437 81.6281 50.85 84.5062 45.2312 87.2906C38.0562 90.8563 31.2843 94.2063 25.0031 94.2063C21.7809 94.2267 18.6352 93.2244 16.0187 91.3438C9.65309 86.9469 9.96559 78.6969 10.7281 74.1719C11.4125 69.9375 13.35 65.9844 15.2031 62.1938C15.3375 61.9656 15.4156 61.7531 15.5312 61.5281C16.1656 61.7531 16.8312 61.9313 17.5312 62.05C16.4218 68.1844 19.5468 74.5344 25.6343 77.6594L26.725 78.225L27.9125 77.8031C32.975 75.9938 37.6781 73.0812 41.8125 69.1781C44.1044 67.0452 46.1268 64.6398 47.8344 62.0156C51.0099 62.5027 54.2533 61.7959 56.9382 60.0316C59.623 58.2672 61.5589 55.5706 62.3719 52.4625H67.2375C67.9569 55.2395 69.5782 57.6989 71.8469 59.4546C74.1156 61.2103 76.9032 62.1628 79.7719 62.1625C82.1812 62.1625 84.4094 61.4969 86.3125 60.3719C87.0625 62.5375 87.3031 64.8 86.8969 67.0625V67.0594Z" fill="#144444"/>
</g>
<defs>
<clipPath id="clip0">
<rect width="100" height="100" fill="white"/>
</clipPath>
</defs>
</svg>
