<svg width="100" height="100" viewBox="0 0 100 100" fill="none" xmlns="http://www.w3.org/2000/svg">
<path d="M58.3333 46.875C58.3333 42.85 61.5999 39.5833 65.6249 39.5833H71.8749C72.7037 39.5833 73.4986 39.9126 74.0846 40.4986C74.6707 41.0847 74.9999 41.8795 74.9999 42.7083C74.9999 43.5371 74.6707 44.332 74.0846 44.918C73.4986 45.5041 72.7037 45.8333 71.8749 45.8333H65.6249C65.3487 45.8333 65.0837 45.9431 64.8883 46.1384C64.693 46.3338 64.5833 46.5987 64.5833 46.875V53.125C64.5833 53.7 65.0499 54.1667 65.6249 54.1667H67.7083C71.7333 54.1667 74.9999 57.4333 74.9999 61.4583V67.7083C74.9999 69.6422 74.2317 71.4969 72.8642 72.8643C71.4968 74.2318 69.6421 75 67.7083 75H61.4583C60.6295 75 59.8346 74.6708 59.2485 74.0847C58.6625 73.4987 58.3333 72.7038 58.3333 71.875C58.3333 71.0462 58.6625 70.2513 59.2485 69.6653C59.8346 69.0792 60.6295 68.75 61.4583 68.75H67.7083C67.9845 68.75 68.2495 68.6403 68.4448 68.4449C68.6402 68.2496 68.7499 67.9846 68.7499 67.7083V61.4583C68.7499 61.1821 68.6402 60.9171 68.4448 60.7218C68.2495 60.5264 67.9845 60.4167 67.7083 60.4167H65.6249C63.691 60.4167 61.8364 59.6484 60.4689 58.281C59.1015 56.9135 58.3333 55.0589 58.3333 53.125V46.875Z" fill="#144444"/>
<path d="M53.125 42.7083C53.125 41.8795 52.7958 41.0847 52.2097 40.4986C51.6237 39.9126 50.8288 39.5833 50 39.5833C49.1712 39.5833 48.3763 39.9126 47.7903 40.4986C47.2042 41.0847 46.875 41.8795 46.875 42.7083V67.7083C46.875 67.9846 46.7653 68.2496 46.5699 68.4449C46.3746 68.6403 46.1096 68.75 45.8333 68.75H40.625C39.7962 68.75 39.0013 69.0792 38.4153 69.6653C37.8292 70.2513 37.5 71.0462 37.5 71.875C37.5 72.7038 37.8292 73.4987 38.4153 74.0847C39.0013 74.6708 39.7962 75 40.625 75H45.8333C47.7672 75 49.6219 74.2318 50.9893 72.8643C52.3568 71.4969 53.125 69.6422 53.125 67.7083V42.7083Z" fill="#144444"/>
<path d="M12.5 26.0417V73.9583C12.5 77.5498 13.9267 80.9942 16.4663 83.5337C19.0058 86.0733 22.4502 87.5 26.0417 87.5H73.9583C77.5498 87.5 80.9942 86.0733 83.5337 83.5337C86.0733 80.9942 87.5 77.5498 87.5 73.9583V26.0417C87.5 22.4502 86.0733 19.0058 83.5337 16.4663C80.9942 13.9267 77.5498 12.5 73.9583 12.5H26.0417C22.4502 12.5 19.0058 13.9267 16.4663 16.4663C13.9267 19.0058 12.5 22.4502 12.5 26.0417ZM26.0417 18.75H73.9583C77.9833 18.75 81.25 22.0167 81.25 26.0417V73.9583C81.25 75.8922 80.4818 77.7469 79.1143 79.1143C77.7469 80.4818 75.8922 81.25 73.9583 81.25H26.0417C24.1078 81.25 22.2531 80.4818 20.8857 79.1143C19.5182 77.7469 18.75 75.8922 18.75 73.9583V26.0417C18.75 22.0167 22.0167 18.75 26.0417 18.75Z" fill="#144444"/>
</svg>
