<svg width="100" height="100" viewBox="0 0 100 100" fill="none" xmlns="http://www.w3.org/2000/svg">
<g clip-path="url(#clip0)">
<path d="M72.4498 34.705L72.4081 34.6883C72.3914 34.68 72.3665 34.6717 72.3498 34.655C72.3198 34.6223 72.2978 34.5831 72.2855 34.5404C72.2732 34.4978 72.271 34.4528 72.279 34.4092L74.2915 22.0842L83.7498 31.5425L73.9165 35.7258C73.89 35.7369 73.8617 35.7425 73.8331 35.7425H73.7914C73.7717 35.731 73.7535 35.717 73.7373 35.7008C73.3717 35.2911 72.9339 34.9521 72.4456 34.7008L72.4498 34.705ZM86.1581 33.955L96.2706 44.0592C98.3706 46.1633 99.4206 47.2133 99.8039 48.4258C99.8623 48.605 99.9081 48.7883 99.9456 48.9717L75.7873 38.7425C75.7735 38.7368 75.7596 38.7312 75.7456 38.7258C75.6498 38.6842 75.5373 38.6425 75.5373 38.5425C75.5373 38.4425 75.654 38.3967 75.7498 38.3592L75.7831 38.3425L86.1581 33.955ZM99.5331 52.2175C99.0123 53.1967 97.9914 54.2175 96.2706 55.9384L84.8748 67.3342L70.1331 64.2634L70.0581 64.2467C69.9248 64.2258 69.7873 64.205 69.7873 64.0842C69.7309 63.4766 69.5501 62.8872 69.2562 62.3525C68.9623 61.8177 68.5616 61.3492 68.079 60.9758C68.0206 60.9133 68.0373 60.8217 68.0539 60.7342L68.0581 60.6967L70.8331 43.6758L70.8415 43.6217C70.8581 43.4883 70.8831 43.3383 70.9998 43.3383C71.5938 43.2645 72.1671 43.0732 72.6864 42.7756C73.2058 42.478 73.6607 42.0801 74.0248 41.605C74.0456 41.5758 74.0665 41.5508 74.0956 41.5342C74.179 41.4925 74.2748 41.5342 74.3623 41.5717L99.5289 52.2175H99.5331ZM82.2539 69.955L63.5123 88.6967L66.7206 68.98L66.7248 68.9509C66.7275 68.9253 66.7331 68.9002 66.7414 68.8759C66.7664 68.8134 66.8373 68.7884 66.8998 68.7634L66.9331 68.7509C67.6356 68.4507 68.2569 67.988 68.7456 67.4009C68.8081 67.3259 68.8831 67.255 68.979 67.2425C69.0038 67.2385 69.0291 67.2385 69.0539 67.2425L82.2539 69.955ZM59.5456 92.6634L57.4331 94.7759L34.079 61.0217C34.0709 61.009 34.0625 60.9965 34.054 60.9842C34.0165 60.9342 33.979 60.8842 33.9873 60.8258C33.9873 60.7842 34.0123 60.7508 34.0415 60.7175L34.0706 60.6842C34.1415 60.58 34.1956 60.4759 34.2665 60.3634L34.3165 60.2717L34.3248 60.2634C34.3623 60.2009 34.3956 60.1383 34.4581 60.1092C34.5123 60.08 34.5873 60.0925 34.6498 60.1092L60.5248 65.4425C60.596 65.4534 60.6634 65.4821 60.7206 65.5258C60.754 65.5592 60.7623 65.5967 60.7706 65.6384C60.9507 66.3214 61.2862 66.9536 61.7509 67.4856C62.2157 68.0175 62.7971 68.4349 63.4498 68.705C63.5248 68.7425 63.4915 68.8217 63.4581 68.9092C63.4404 68.9466 63.4264 68.9857 63.4165 69.0258L59.5456 92.6634ZM55.1331 97.0717C53.579 98.6134 52.6581 99.43 51.6206 99.7592C50.597 100.083 49.4984 100.083 48.4748 99.7592C47.2623 99.3717 46.2081 98.3217 44.1081 96.2217L20.654 72.7675L26.779 63.2675C26.8058 63.2186 26.8427 63.176 26.8873 63.1425C26.9498 63.1009 27.0456 63.1175 27.1248 63.1425C28.5306 63.5662 30.0399 63.4897 31.3956 62.9258C31.4665 62.9009 31.5373 62.8842 31.5915 62.9342C31.6181 62.9593 31.6418 62.9872 31.6623 63.0175L55.1331 97.0759V97.0717ZM18.3956 70.505L13.0123 65.1259L23.6373 60.5925C23.665 60.5811 23.6948 60.5754 23.7248 60.5759C23.8123 60.5759 23.8665 60.6633 23.9123 60.7425C24.0185 60.9079 24.1311 61.0692 24.2498 61.2259L24.2873 61.2675C24.3165 61.3092 24.2956 61.3509 24.2665 61.3925L18.3956 70.505ZM10.6331 62.7509L3.82479 55.9384C2.92096 55.0729 2.05888 54.165 1.24145 53.2175L21.9415 57.5092C21.9678 57.5138 21.9942 57.518 22.0206 57.5217C22.1456 57.5425 22.2873 57.5675 22.2873 57.6884C22.2873 57.8175 22.1331 57.88 22.004 57.9258L21.9456 57.955L10.6331 62.7509ZM0.0539551 49.7175C0.0770403 49.2789 0.155438 48.8449 0.287288 48.4258C0.674788 47.2133 1.72479 46.1633 3.82895 44.0592L12.5373 35.3508C16.5473 41.1709 20.5681 46.9834 24.5998 52.7883C24.6706 52.8842 24.7498 52.9883 24.6706 53.0675C24.2728 53.4832 23.926 53.9448 23.6373 54.4425C23.6098 54.5062 23.5668 54.5621 23.5123 54.605C23.4748 54.6258 23.4373 54.6175 23.3998 54.6092H23.3956L0.0539551 49.7133V49.7175ZM14.8665 33.0175L26.579 21.3092C27.6831 21.7883 31.6873 23.48 35.2706 24.9925C37.9831 26.1425 40.454 27.1842 41.229 27.5217C41.3123 27.555 41.3831 27.5842 41.4165 27.6633C41.4373 27.7092 41.4248 27.7717 41.4165 27.8217C41.2311 28.6669 41.2586 29.5449 41.4964 30.3769C41.7342 31.2089 42.1749 31.9688 42.779 32.5884C42.8581 32.6675 42.779 32.78 42.7123 32.8759L42.6748 32.93L30.7831 51.3467C30.7569 51.3995 30.7183 51.4453 30.6706 51.48C30.6081 51.5217 30.5206 51.5008 30.4456 51.48C29.9829 51.3592 29.5072 51.2949 29.029 51.2883C28.5998 51.2883 28.1373 51.3717 27.6665 51.455C27.6123 51.4633 27.5665 51.4717 27.5248 51.4425C27.4789 51.4047 27.4395 51.3597 27.4081 51.3092L14.8665 33.0175ZM28.9498 18.9383L44.104 3.77585C46.204 1.68001 47.254 0.625847 48.4706 0.242513C49.4943 -0.0811938 50.5928 -0.0811938 51.6165 0.242513C52.8331 0.625847 53.8831 1.68001 55.9831 3.77585L59.2706 7.06751L48.4831 23.7675C48.4572 23.8158 48.4218 23.8583 48.379 23.8925C48.3123 23.9342 48.2206 23.9175 48.1415 23.8925C47.2918 23.6349 46.3923 23.5879 45.5205 23.7555C44.6486 23.9232 43.8307 24.3006 43.1373 24.855C43.0665 24.93 42.9623 24.8883 42.8706 24.8467C41.4623 24.2342 30.5081 19.605 28.9415 18.9425L28.9498 18.9383ZM61.5623 9.35501L71.5206 19.3134L69.1206 34.1717V34.2133C69.1182 34.2461 69.1111 34.2784 69.0998 34.3092C69.0748 34.3633 69.0206 34.3717 68.9706 34.3883C68.4579 34.5426 67.9747 34.782 67.5414 35.0967C67.5221 35.1103 67.5039 35.1257 67.4873 35.1425C67.4581 35.1758 67.429 35.205 67.3831 35.2092C67.3449 35.211 67.3067 35.2053 67.2706 35.1925L52.0998 28.7425L52.0706 28.73C51.9706 28.6883 51.8581 28.6467 51.8581 28.5467C51.7691 27.7007 51.493 26.8852 51.0498 26.1592C50.9748 26.0383 50.8956 25.9133 50.9581 25.7925L61.5623 9.35501ZM51.3081 31.7925L65.5331 37.8175C65.6123 37.855 65.6998 37.8883 65.729 37.9717C65.7421 38.0194 65.7421 38.0698 65.729 38.1175C65.6815 38.3437 65.6564 38.5739 65.654 38.805V39.205C65.654 39.3008 65.5498 39.3425 65.4581 39.3842L65.429 39.3925C63.1748 40.355 33.7915 52.8842 33.7498 52.8842C33.704 52.8842 33.6581 52.8842 33.6123 52.8425C33.5331 52.7592 33.6123 52.655 33.6831 52.5508C33.6959 52.5344 33.7084 52.5177 33.7206 52.5009L45.4081 34.4008L45.429 34.3717C45.4956 34.2633 45.5748 34.1383 45.6998 34.1383L45.8165 34.155C46.0831 34.1967 46.3165 34.2258 46.554 34.2258C48.329 34.2258 49.9706 33.3633 50.9623 31.8883C50.9868 31.8487 51.0178 31.8135 51.054 31.7842C51.1248 31.73 51.229 31.7592 51.3081 31.7925ZM35.0165 55.7509L67.0456 42.0925C67.0456 42.0925 67.0915 42.0925 67.1373 42.1342C67.3123 42.3092 67.4581 42.4258 67.604 42.5383L67.6748 42.58C67.7373 42.6175 67.8039 42.6592 67.8081 42.7258L67.804 42.7925L65.0581 59.6467L65.0498 59.7134C65.0331 59.8425 65.0123 59.9925 64.8915 59.9925C64.1596 60.0413 63.4507 60.268 62.8262 60.6528C62.2018 61.0377 61.6807 61.569 61.3081 62.2009L61.2956 62.2217C61.2581 62.28 61.2248 62.3383 61.1665 62.3717C61.1123 62.3967 61.0415 62.3842 60.9831 62.3717L35.4415 57.105C35.4165 57.1008 35.0456 55.7508 35.0165 55.7467V55.7509Z" fill="#144444"/>
</g>
<defs>
<clipPath id="clip0">
<rect width="100" height="100" fill="white"/>
</clipPath>
</defs>
</svg>
