<svg width="100" height="100" viewBox="0 0 100 100" fill="none" xmlns="http://www.w3.org/2000/svg">
<path d="M98.1667 61.3458C98.109 61.1698 98.0292 61.0018 97.9292 60.8458C97.3501 59.7542 95.9417 59.425 93.7334 59.8833C86.8417 61.3 84.1751 60.425 83.2084 59.8C88.8001 51.2667 93.3959 40.9583 95.8792 31.3417C97.0126 26.9667 99.2042 16.6625 96.3876 11.6333C96.209 11.2876 95.9998 10.9585 95.7626 10.65C90.3834 3.79167 82.5001 0.10417 72.9584 0.00417043C66.7292 -0.0624962 61.4167 1.44584 59.9751 2C59.2617 1.86632 58.5448 1.75239 57.8251 1.65834C56.0204 1.33269 54.192 1.15571 52.3584 1.12917C47.4334 1.05 43.1792 2.22917 39.6501 4.62917C36.0834 3.29167 19.7042 -2.225 9.56674 4.95834C3.89591 8.97084 1.28758 16.1375 1.79174 26.2667C1.96258 29.675 3.90424 40.1583 6.97091 50.2C8.88758 56.475 10.8792 61.4583 12.9417 65.125C15.2459 69.2667 17.6334 71.7625 20.0834 72.5833C21.9501 73.2 24.8042 73.1792 27.8251 69.5458C30.4455 66.4115 33.1478 63.3466 35.9292 60.3542C37.7417 61.3333 39.7042 61.8625 41.7209 61.925C41.7207 61.9306 41.7207 61.9361 41.7209 61.9417C41.3703 62.3591 41.0272 62.7828 40.6917 63.2125C39.2792 65.0042 38.9834 65.3792 34.4417 66.3167C33.1501 66.5833 29.7167 67.2875 29.6667 69.6958C29.6572 70.1773 29.789 70.651 30.0459 71.0583C30.9917 72.8208 33.8876 73.6 34.2751 73.6958C39.8376 75.0833 44.7126 74.0792 48.3251 70.8667C48.2542 80.1625 48.6459 89.275 49.7626 92.0667C50.6834 94.3708 52.9376 100 60.0542 100C61.0959 100 62.2459 99.875 63.5084 99.6083C70.9334 98.0167 74.1584 94.7333 75.4042 87.5C76.0292 83.875 77.0792 75.5208 77.6501 70.4125C77.7209 70.1208 77.8001 69.9125 77.8876 69.8458C77.8876 69.8458 78.1792 69.6458 79.6667 69.9708C79.7272 69.9843 79.7884 69.994 79.8501 70L80.9084 70.0917L80.9709 70.0958C84.5001 70.2583 88.9334 69.5042 91.5167 68.3042C94.2001 67.0542 99.0417 64 98.1626 61.3458H98.1667ZM9.87508 49.4833C6.77508 39.3375 4.96674 29.1292 4.82508 26.2708C4.37091 17.2208 6.56258 10.925 11.3334 7.55C18.9876 2.1375 31.5001 5.3 36.7834 7.00834L36.7417 7.05C28.3126 15.5583 28.5126 30.1083 28.5417 31C28.5417 31.3417 28.5667 31.8292 28.6084 32.5C28.7501 34.9417 29.0251 39.5 28.3001 44.6583C27.6334 49.45 29.1084 54.1417 32.3542 57.5292C32.6876 57.8792 33.0417 58.2083 33.4042 58.5167C31.9584 60.0625 28.8209 63.4875 25.4751 67.5083C23.1084 70.35 21.4751 69.8042 20.9417 69.625C19.3084 69.0833 17.5542 67.1792 15.7792 64.1167C13.7792 60.6208 11.7667 55.65 9.88341 49.4833H9.87508ZM34.9042 70.6833C34.2717 70.5241 33.6654 70.2743 33.1042 69.9417C33.4751 69.7792 34.0917 69.5667 35.1167 69.3583C40.4667 68.2542 41.2917 67.4792 43.0959 65.1917C43.5084 64.6625 43.9751 64.0667 44.6251 63.3458C44.7652 63.1892 44.8703 63.0046 44.9334 62.8042C45.6417 62.175 46.0667 62.3458 46.7501 62.6292C47.4001 62.9 48.0334 63.7125 48.2917 64.6083C48.4167 65.0333 48.5501 65.8375 48.1042 66.4625C44.3376 71.7375 38.8459 71.6708 34.9042 70.6833ZM43.6292 54.0667L43.4126 54.65C42.8584 56.1375 42.3417 57.5208 42.0209 58.8333C39.2417 58.825 36.5334 57.6333 34.4792 55.4875C31.8626 52.7583 30.6751 48.9625 31.2167 45.0708C31.9792 39.6208 31.7001 34.875 31.5501 32.325L31.4959 31.4083C32.7292 30.3167 38.4376 27.2583 42.5084 28.1917C44.3667 28.6167 45.5001 29.8833 45.9667 32.0583C48.4042 43.325 46.2917 48.0167 44.5917 51.7917C44.2468 52.539 43.9272 53.2978 43.6334 54.0667H43.6292ZM74.3126 73.1167C74.2417 73.8542 74.1626 74.6833 74.0542 75.6L73.4459 77.425C73.3978 77.5702 73.3725 77.722 73.3709 77.875C73.3459 79.8542 73.1459 80.5792 72.8917 81.5C72.6251 82.4542 72.3292 83.5333 72.1417 85.9042C71.6834 91.7958 68.4834 95.1833 62.0709 96.5542C55.7584 97.9083 54.6376 94.4875 53.6542 91.4667C53.5517 91.1494 53.4433 90.8341 53.3292 90.5208C52.4334 88.0792 52.5376 84.6375 52.6751 79.875C52.7417 77.5375 52.5709 71.9542 51.3001 68.85C51.3167 67.6292 51.3417 66.3875 51.3792 65.1333C51.3827 64.9738 51.3602 64.8148 51.3126 64.6625C51.2721 64.3696 51.2109 64.08 51.1292 63.7958C50.6209 62.0125 49.3792 60.5208 47.8792 59.9C47.2876 59.6542 46.2001 59.2042 44.8917 59.5375C45.1709 58.3875 45.6542 57.0917 46.1792 55.6833L46.4001 55.0917C46.6501 54.425 46.9584 53.7375 47.2876 53.0083C49.0626 49.0583 51.4959 43.65 48.8542 31.4333C47.8667 26.8583 44.5626 24.625 39.5542 25.1417C36.5542 25.4542 33.8042 26.6667 32.4334 27.3583C32.1584 27.4974 31.8861 27.6419 31.6167 27.7917C32.0001 23.1833 33.4459 14.5667 38.8501 9.11667C39.2511 8.71217 39.6725 8.32834 40.1126 7.96667C40.3316 7.92473 40.5382 7.83354 40.7167 7.7C43.8501 5.325 47.7792 4.15834 52.3917 4.22917C54.1001 4.25834 55.7334 4.37084 57.2834 4.56667C65.3667 6.04584 70.8001 10.5958 74.1001 14.4958C77.4917 18.5042 79.3292 22.5417 80.0626 24.7208C74.5501 24.1625 70.8001 25.25 68.8959 27.9708C64.7626 33.8792 71.1626 45.3542 74.2376 50.8708C74.8001 51.8792 75.2876 52.7542 75.4417 53.1208C76.4417 55.55 77.7376 57.1708 78.6834 58.3542C78.9751 58.7167 79.2584 59.0667 79.4709 59.375C77.8042 59.8583 74.8042 60.9708 75.0751 66.5292C75.0209 67.1792 74.8959 68.3917 74.7251 69.925C74.5334 70.7917 74.4334 71.8417 74.3084 73.1167H74.3126ZM78.0209 66.3625C77.8542 62.8958 79.1459 62.5333 80.5084 62.1542C80.6973 62.1019 80.8848 62.0449 81.0709 61.9833C81.2467 62.1393 81.4333 62.2827 81.6292 62.4125C84.0042 63.9792 88.2251 64.1667 94.1584 62.9708C93.3167 63.7083 91.9959 64.6375 90.1876 65.475C88.4792 66.2667 85.6209 66.8625 82.9084 66.9917C79.9084 67.1333 78.3834 66.6583 78.0209 66.3625ZM80.3959 27.7333C80.3709 29.1917 80.1709 30.5208 79.9584 31.9042C79.7292 33.3958 79.4917 34.9375 79.4292 36.8083C79.3709 38.625 79.5959 40.5167 79.8167 42.35C80.2626 46.0458 80.7167 49.85 78.9542 53.6042C78.6609 53.0858 78.3993 52.5501 78.1709 52C77.7592 51.1227 77.3074 50.2649 76.8167 49.4292C74.2501 44.8292 68.2459 34.0542 71.3167 29.6625C72.9001 27.4 76.9084 27.3042 80.3959 27.7333ZM81.3459 56.9542C81.2287 56.8049 81.1106 56.6563 80.9917 56.5083L80.8459 56.325C83.8709 51.325 83.2792 46.3792 82.7501 41.9958C82.5334 40.1958 82.3334 38.4958 82.3834 36.9042C82.4376 35.2083 82.6584 33.7583 82.8751 32.3542C83.1417 30.625 83.4167 28.8375 83.3376 26.7292C83.3994 26.4701 83.4163 26.2023 83.3876 25.9375C83.1959 23.9125 80.8876 17.8625 76.1792 12.3833C73.1106 8.767 69.2879 5.86584 64.9792 3.88334C67.7547 3.31573 70.5843 3.05583 73.4167 3.10834C81.9667 3.3 88.7292 6.5 93.5167 12.6208C93.6189 12.7534 93.7122 12.8926 93.7959 13.0375C96.8084 18.6875 92.6459 39.1833 81.3501 56.9542H81.3459ZM44.6126 31.4708C44.5084 32.2208 43.3209 33.2333 42.0251 33.2333C41.9121 33.2329 41.7994 33.2245 41.6876 33.2083C40.8415 33.06 40.0858 32.5895 39.5792 31.8958C39.3876 31.6458 39.0792 31.1542 39.1376 30.7083C39.1568 30.584 39.201 30.4649 39.2676 30.3582C39.3342 30.2514 39.4218 30.1594 39.5251 30.0875C40.0167 29.7167 40.9917 29.5792 42.0667 29.7292C43.3834 29.9125 44.7417 30.5333 44.6084 31.4708H44.6126ZM77.6542 29.7583C77.7001 30.0917 77.4501 30.5917 77.0167 31.05C76.568 31.5387 75.9704 31.8654 75.3167 31.9792C75.2132 31.9933 75.1088 32.0002 75.0042 32C73.7834 32 72.7501 31.025 72.6709 30.4542C72.5709 29.7167 73.7709 29.1625 75.0042 28.9875C76.2459 28.8125 77.5542 29.025 77.6542 29.7583Z" fill="#144444"/>
</svg>
