<svg width="100" height="100" viewBox="0 0 100 100" fill="none" xmlns="http://www.w3.org/2000/svg">
<path d="M35.6375 10.5C32.9969 10.3219 30.4 10.7969 28.125 12.1094C25.0906 13.8594 23.0688 16.85 21.9844 20.2969C20.9 23.7344 20.65 27.7031 21.0469 32.0375C21.0844 32.475 21.1625 32.9344 21.2156 33.3812C20.8031 33.5562 20.3656 33.7187 19.9656 33.9062C16.0156 35.7281 12.7063 37.9281 10.2656 40.5875C7.82813 43.25 6.25 46.4937 6.25 50C6.25 53.5031 7.82813 56.75 10.2656 59.4125C12.7031 62.0719 16.0156 64.2719 19.9656 66.0937C20.3656 66.2812 20.8031 66.4437 21.2156 66.6187C21.1625 67.0656 21.0844 67.525 21.0438 67.9625C20.65 72.2969 20.9 76.2625 21.9844 79.7062C23.0688 83.15 25.0906 86.1375 28.125 87.8906C31.1594 89.6406 34.7563 89.9 38.2812 89.1187C41.8063 88.3375 45.3656 86.5656 48.9188 84.0562C49.2781 83.8062 49.6375 83.5094 50 83.2406C50.3594 83.5094 50.7188 83.8031 51.0813 84.0562C54.6344 86.5656 58.1937 88.3375 61.7188 89.1187C65.2438 89.9 68.8406 89.6437 71.875 87.8906C74.9094 86.1406 76.9313 83.15 78.0156 79.7031C79.1 76.2656 79.35 72.2969 78.9531 67.9625C78.9156 67.525 78.8375 67.0656 78.7844 66.6187C79.1969 66.4437 79.6344 66.2812 80.0344 66.0937C83.9844 64.2719 87.2937 62.0719 89.7344 59.4125C92.1719 56.75 93.75 53.5062 93.75 50C93.75 46.4969 92.1719 43.25 89.7344 40.5875C87.2969 37.9281 83.9844 35.7281 80.0344 33.9062C79.6344 33.7187 79.1969 33.5562 78.7844 33.3812C78.8375 32.9344 78.9156 32.475 78.9563 32.0375C79.35 27.7031 79.1 23.7375 78.0156 20.2937C76.9313 16.85 74.9094 13.8625 71.875 12.1094C68.8406 10.3594 65.2438 10.1 61.7188 10.8812C58.1937 11.6625 54.6344 13.4344 51.0813 15.9437C50.7219 16.1937 50.3625 16.4906 50 16.7594C49.6406 16.4906 49.2812 16.1969 48.9188 15.9437C45.3656 13.4344 41.8063 11.6625 38.2812 10.8812C37.411 10.6862 36.5272 10.5577 35.6375 10.4969V10.5ZM35.2313 16.725C35.7625 16.7625 36.3281 16.85 36.9312 16.9875C39.2938 17.5094 42.1219 18.8344 45.1063 20.9094C42.486 23.4035 40.0573 26.0913 37.8406 28.95C34.2619 29.4381 30.7248 30.1944 27.2594 31.2125C26.9531 27.5937 27.2156 24.4812 27.9406 22.175C28.6875 19.8125 29.8 18.3625 31.25 17.5219C32.3375 16.8969 33.6312 16.6031 35.2281 16.725H35.2313ZM64.7719 16.725C66.3656 16.6031 67.6625 16.8969 68.75 17.5219C70.2 18.3594 71.3125 19.8125 72.0594 22.175C72.7844 24.4812 73.0469 27.5937 72.7406 31.2125C69.2752 30.1944 65.7382 29.4381 62.1594 28.95C59.9427 26.0913 57.514 23.4035 54.8937 20.9094C57.8781 18.8344 60.7062 17.5094 63.0687 16.9875C63.6719 16.8531 64.2375 16.7625 64.7719 16.725ZM50 24.8719C51.0969 25.8875 52.1937 27.0156 53.2906 28.1969C52.1943 28.1534 51.0972 28.1294 50 28.125C48.8906 28.125 47.8 28.1594 46.7094 28.1969C47.8031 27.0156 48.9031 25.8875 50 24.8719ZM50 34.375C53.0156 34.375 55.9375 34.5531 58.7469 34.85C60.4702 37.2096 62.0672 39.6588 63.5312 42.1875C65.0375 44.7969 66.3438 47.4156 67.4937 50C66.3119 52.6724 64.9892 55.2802 63.5312 57.8125C62.0672 60.3411 60.4702 62.7904 58.7469 65.15C55.9344 65.4469 53.0156 65.625 50 65.625C46.9844 65.625 44.0625 65.4469 41.2531 65.15C39.5298 62.7904 37.9328 60.3411 36.4688 57.8125C34.9625 55.2031 33.6563 52.5844 32.5063 50C33.6531 47.4156 34.9625 44.7969 36.4688 42.1875C37.975 39.5781 39.5906 37.1344 41.2531 34.85C44.1583 34.5372 47.078 34.3787 50 34.375ZM32.7625 36.25C32.1844 37.1719 31.6094 38.1 31.0562 39.0625C30.5121 40.0156 29.9849 40.9782 29.475 41.95C29.0063 40.4621 28.5945 38.9568 28.2406 37.4375C29.6687 36.9969 31.1938 36.6062 32.7625 36.25ZM67.2375 36.25C68.8063 36.6062 70.3312 36.9969 71.7594 37.4375C71.4281 38.8969 71 40.4125 70.525 41.95C70.0151 40.9782 69.4879 40.0156 68.9438 39.0625C68.3917 38.115 67.8229 37.1773 67.2375 36.25ZM22.3562 39.6969C23.1562 43.025 24.2594 46.4781 25.6906 50C24.3223 53.3459 23.2077 56.79 22.3562 60.3031C19.0719 58.7562 16.5063 56.9687 14.875 55.1875C13.2031 53.3625 12.5 51.675 12.5 50C12.5 48.325 13.2031 46.6375 14.875 44.8125C16.5063 43.0312 19.0719 41.2437 22.3562 39.6969ZM77.6438 39.6969C80.9281 41.2437 83.4938 43.0312 85.125 44.8125C86.7969 46.6375 87.5 48.325 87.5 50C87.5 51.675 86.7969 53.3625 85.125 55.1875C83.4938 56.9687 80.9281 58.7562 77.6438 60.3031C76.7923 56.79 75.6777 53.3459 74.3094 50C75.7406 46.4781 76.8438 43.025 77.6438 39.6969ZM50 40.625C44.8594 40.625 40.625 44.8594 40.625 50C40.625 55.1406 44.8594 59.375 50 59.375C55.1406 59.375 59.375 55.1406 59.375 50C59.375 44.8594 55.1406 40.625 50 40.625ZM50 46.875C51.7625 46.875 53.125 48.2375 53.125 50C53.125 51.7625 51.7625 53.125 50 53.125C48.2375 53.125 46.875 51.7625 46.875 50C46.875 48.2375 48.2375 46.875 50 46.875ZM29.475 58.05C29.9844 59.0125 30.5 59.975 31.0531 60.9375C31.6094 61.9 32.1844 62.8281 32.7625 63.75C31.1938 63.3937 29.6687 63.0031 28.2406 62.5625C28.5719 61.1031 29 59.5875 29.475 58.05ZM70.525 58.05C71 59.5875 71.4313 61.1031 71.7594 62.5625C70.3312 63.0031 68.8063 63.3937 67.2375 63.75C67.8156 62.8281 68.3906 61.9 68.9469 60.9375C69.5 59.975 70.0156 59.0125 70.525 58.05ZM27.2594 68.7875C30.5406 69.7562 34.0813 70.5312 37.8406 71.05C40.175 74.05 42.6219 76.7312 45.1063 79.0906C42.1219 81.1656 39.2938 82.4906 36.9312 83.0125C34.5156 83.55 32.7 83.3125 31.25 82.4781C29.8 81.6406 28.6875 80.1875 27.9406 77.825C27.2156 75.5187 26.9531 72.4062 27.2594 68.7875ZM72.7406 68.7875C73.0469 72.4062 72.7844 75.5187 72.0594 77.825C71.3125 80.1875 70.2 81.6375 68.75 82.4781C67.3 83.3125 65.4844 83.55 63.0687 83.0125C60.7062 82.4906 57.8781 81.1656 54.8937 79.0906C57.514 76.5965 59.9427 73.9087 62.1594 71.05C65.7382 70.5619 69.2752 69.8056 72.7406 68.7875ZM46.7094 71.8031C47.8 71.8406 48.8906 71.875 50 71.875C51.1094 71.875 52.2 71.8406 53.2906 71.8031C52.1969 72.9844 51.0969 74.1125 50 75.1281C48.8612 74.0621 47.7635 72.953 46.7094 71.8031Z" fill="#144444"/>
</svg>
