<svg width="100" height="100" viewBox="0 0 100 100" fill="none" xmlns="http://www.w3.org/2000/svg">
<path d="M38.9735 29.0891C35.1188 27.0781 31.3563 26.4078 28.9813 28.0938C27.3032 29.2891 26.561 31.5156 26.5251 34.2094C22.6165 30.4517 19.456 25.9869 17.211 21.0516V3.125H10.0532V21.0578H10.0891C8.85631 25.3016 7.80319 30.2781 7.81256 34.9547C7.82506 44.3922 15.2157 49.1422 21.2282 49.1422C21.3141 49.1422 21.3923 49.1234 21.4782 49.1219C22.4826 49.1111 23.4792 48.9451 24.4329 48.6297L24.4876 48.6078C25.4735 48.2656 26.3579 47.7687 27.0626 47.0781C27.0626 47.0781 26.0188 46.3422 24.4657 44.8469C25.4391 44.9172 26.5047 44.8938 27.5688 44.7781C28.3829 48.625 30.1438 52.7422 31.5454 54.6422L62.3172 96.875H69.8313L41.9876 56.4C44.1391 56.3516 46.2173 55.5031 48.1454 54.1313C52.9032 50.7531 54.9563 45.5672 49.5282 38.1828C48.268 36.4962 46.8415 34.9405 45.2704 33.5391C47.1813 34.7516 49.5251 36.7625 52.0751 40.0734C61.6032 52.4219 92.1876 94.6594 92.1876 94.6594V89.1203C92.1876 89.1203 64.2063 50.5984 54.6516 38.2109C48.0657 29.6719 41.5891 27.7641 38.9735 29.0891ZM15.1376 41.3672C16.6844 45.2734 23.0626 47.1297 23.0626 47.1297C19.0126 49.4062 9.00944 43.9359 8.99694 34.9531C8.99069 30.3031 10.0735 25.2906 11.3251 21.0562H13.1985C17.0797 34.4141 26.5219 37.8656 26.5219 37.8656C22.5282 37.8656 17.8422 36.6672 17.8422 36.6672C21.8094 41.2094 30.2563 42.1125 30.2563 42.1125C22.861 43.725 15.1376 41.3672 15.1376 41.3672ZM47.7688 38.9203C52.636 45.5344 50.5641 49.2625 48.9766 50.3906C47.3923 51.5172 47.5235 49.1703 42.6563 42.5531C37.786 35.9406 30.6438 30.0594 32.2313 28.9328C33.8173 27.8094 42.9016 32.3063 47.7688 38.9203Z" fill="#144444"/>
<path d="M88.0405 36.2719C88.3874 36.8297 92.1874 43.4984 92.1874 43.5V36.9391C92.1874 36.9391 91.1468 35.2266 90.7889 34.6609C86.6686 28.075 81.2343 24.4516 77.9936 24.275C77.2577 24.2406 76.6999 24.3844 76.2874 24.5875C72.8843 22.5047 69.4905 21.65 67.1655 23.025C64.4218 24.6469 63.7624 28.9984 64.5499 33.8219C63.5483 37.9797 65.6702 45.6047 67.4249 48.4688L92.1874 87.5781V76.7609L77.3405 50.9672C79.3452 51.0563 81.3468 50.4156 83.2514 49.2906C88.0483 46.4531 90.4296 41.6891 85.8671 34.2375C84.916 32.7038 83.826 31.2608 82.6108 29.9266C84.2983 31.3125 86.2093 33.3484 88.0405 36.2719ZM84.3468 45.8016C82.7514 46.7438 83.0686 44.5219 78.9811 37.85C74.8921 31.1766 68.5874 25.0219 70.1827 24.0781C71.7811 23.1328 80.0483 28.1281 84.1327 34.8C88.2233 41.4734 85.953 44.8547 84.3468 45.8016Z" fill="#144444"/>
<path d="M22.8796 65.7406L22.9015 65.7687C18.9984 64.0562 15.2562 63.6422 13.0843 65.4547C10.6453 67.4953 10.7187 71.9 12.2937 76.5344C11.9999 80.7969 15.3515 87.9734 17.5578 90.5187L22.7078 96.875H31.1187L26.9374 91.4547C29.239 91.4219 31.3874 90.4047 33.3062 88.8C37.5703 85.2328 39.1296 80.1484 33.3953 73.5297C32.1781 72.1234 30.7468 70.7953 29.2171 69.6016C31.0999 70.6781 33.4218 72.4453 35.889 75.1937C40.6187 80.4656 54.6624 96.875 54.6624 96.875H58.7499C58.7499 96.875 43.0734 78.4516 38.3156 73.1531C32.6359 66.825 25.864 63.5687 22.8796 65.7406ZM31.7812 74.3609C36.9171 80.2922 35.2328 83.9906 33.814 85.1844C32.3921 86.3688 32.3374 84.1266 27.1984 78.1953C22.0624 72.2641 14.8234 67.2031 16.239 66.0109C17.6578 64.8219 26.6421 68.4328 31.7812 74.3609Z" fill="#144444"/>
</svg>
