<svg width="100" height="100" viewBox="0 0 100 100" fill="none" xmlns="http://www.w3.org/2000/svg">
<g clip-path="url(#clip0)">
<path d="M83.6252 38.7031V38.625C83.6595 38.4594 84.2126 34.6656 83.2845 29.2969C83.2687 29.1714 83.2178 29.0529 83.1377 28.955C83.0575 28.8572 82.9513 28.784 82.8314 28.7438L81.3814 28.3406C81.0408 17.0438 76.3689 11.675 76.2564 11.5438C80.422 18.2156 80.372 26.1719 80.2939 28.0438L71.2595 25.4281H71.0814C71.0284 25.4125 70.9719 25.4125 70.9189 25.4281H70.7845L70.7501 25.4563L70.622 25.5406L70.5876 25.5906L69.9533 26.175C70.2001 19.7078 68.7648 13.2871 65.7877 7.54064C65.9158 7.80002 69.1252 17.2563 68.0002 27.8375C67.6504 28.1299 67.2875 28.4062 66.9127 28.6656C66.8279 28.7326 66.7578 28.8162 66.7067 28.9113C66.6556 29.0065 66.6247 29.1111 66.6158 29.2188C66.516 31.4596 65.9509 33.6551 64.9564 35.6656C57.5316 35.1625 50.0812 35.1625 42.6564 35.6656L42.622 35.5031C41.6809 33.5473 41.1452 31.4214 41.047 29.2531C41.047 29.0063 40.947 28.8438 40.7501 28.6656C40.3647 28.4055 39.9904 28.1293 39.6283 27.8375C38.5376 17.2594 41.7439 7.80002 41.8251 7.54064C38.872 13.2942 37.4544 19.7128 37.7095 26.175L37.072 25.5906L37.0439 25.5406L36.9095 25.4563L36.7814 25.4281H36.4564L27.372 28C27.162 22.236 28.5599 16.5273 31.4095 11.5125C31.297 11.675 26.6251 16.9969 26.2845 28.2906L24.8345 28.7156C24.7154 28.7524 24.6094 28.8226 24.529 28.9179C24.4487 29.0131 24.3974 29.1295 24.3814 29.2531C23.4533 34.6688 23.9564 38.4156 24.0064 38.5938V38.6719L23.6658 38.7563C22.2767 39.1669 20.9348 39.7231 19.6626 40.4156C20.3283 40.175 20.997 40.0125 21.747 39.8C25.2401 38.9816 28.795 38.4537 32.3751 38.2219L36.622 37.8813C42.3575 37.5772 48.1004 37.4355 53.8439 37.4563C61.0125 37.4349 68.1793 37.6903 75.3283 38.2219C78.9127 38.5313 82.4564 39.0688 85.9564 39.8C86.672 39.9625 87.3408 40.175 88.0408 40.4156C86.7586 39.7187 85.405 39.1623 84.0033 38.7563L83.6283 38.6719L83.6252 38.7031ZM36.5095 36.2469C32.7434 36.7194 29.0087 37.4155 25.3251 38.3313C25.247 37.7156 24.9158 34.4281 25.6158 29.9188L35.8689 27.0031C35.7082 30.1137 36.0159 33.2308 36.7814 36.25L36.5095 36.2469ZM38.0376 36.0844V35.7438C37.3783 33.0787 37.0995 30.3338 37.2095 27.5906C37.8751 28.2125 38.7876 29.0063 39.7126 29.675C39.797 30.5875 40.0376 33.2875 41.2408 35.7969L38.0376 36.0844ZM69.6283 35.7406V36.0813C68.56 35.9681 67.4901 35.8712 66.4189 35.7906C67.6564 33.2813 67.8689 30.5813 67.9533 29.6188C68.8783 29.0031 69.7908 28.2063 70.4564 27.5344C70.5408 29.375 70.4564 32.6625 69.6283 35.7375V35.7406ZM82.3408 38.3281C78.6933 37.327 74.9691 36.6298 71.2064 36.2438H70.8314L70.9158 36.1313C71.6611 33.1474 71.9405 30.0662 71.7439 26.9969L81.997 29.9125C82.4501 32.6969 82.547 35.525 82.2877 38.325L82.3408 38.3281ZM70.0033 63.4906C72.9158 63.4125 74.4626 62.55 75.9127 63.25C75.9127 63.1656 75.4533 61.7844 73.422 62.0469C73.7001 61.375 73.797 60.6625 73.7126 59.9625C73.422 56.575 71.5001 53.9219 69.3376 53.9531C67.2033 54.0375 65.8376 56.8656 65.9158 60.2031C66.0501 63.5906 67.8689 63.5406 70.0033 63.4906ZM69.1751 56.1219C70.6376 56.1219 70.6376 58.3344 69.1751 58.3344C67.6908 58.3344 67.6908 56.1219 69.1751 56.1219ZM36.5095 64.0781H37.8251C40.0095 64.0781 41.7501 64.2563 41.7501 60.8688C41.7158 57.5344 40.2001 54.7813 38.0876 54.7813C35.922 54.7813 33.8376 57.5813 33.9501 60.9531C34.0001 61.8313 34.1283 62.45 34.3751 62.925C32.4533 63.4125 31.9658 64.5844 31.9158 64.6344C33.0876 63.9969 34.4251 64.0813 36.5064 64.0813L36.5095 64.0781ZM38.3783 56.9156C39.8408 56.8813 39.8908 59.1 38.4126 59.1281C36.947 59.1438 36.897 56.95 38.3783 56.9156ZM99.7533 35.2531C99.7045 34.8879 99.6451 34.5243 99.5751 34.1625L99.3345 33.0406L99.2502 32.7938L99.0408 32.6156C97.9128 31.7534 96.6941 31.0168 95.4064 30.4188C94.3658 29.9594 93.322 29.4906 92.2533 29.1156C89.4016 20.9425 84.2451 13.7695 77.4064 8.46252C70.6378 3.26309 62.3415 0.444458 53.8064 0.444458C45.2713 0.444458 36.975 3.26309 30.2064 8.46252C23.3879 13.799 18.2508 20.9866 15.4095 29.1656L12.2845 30.4531C11.0314 31.0875 9.79702 31.7531 8.62202 32.6656L8.41265 32.8281L8.32827 33.0875C8.12192 33.8069 7.9797 34.5431 7.90327 35.2875C7.59933 37.4555 7.57308 39.6535 7.82515 41.8281C8.13609 44.3814 8.7997 46.8791 9.79702 49.25L10.0376 49.7875L10.2001 50.05L10.3626 50.325L10.497 50.5375L10.7376 50.6656C10.9658 50.7813 11.197 50.8938 11.4033 50.9906L12.0689 51.2875L12.4095 51.4656C9.49702 54.1656 6.2939 57.7156 3.4939 62.075L-0.00610352 67.5469L4.90952 63.25C4.98765 63.1656 9.07515 59.6219 15.9939 55.5844L16.072 56.3813C15.6689 56.5781 13.4501 57.7188 12.8189 58.2531C11.7439 59.1313 11.697 60.5031 11.9908 63.0906C12.1189 64.375 12.6251 66.9156 13.2908 69.2563C14.4501 73.2938 15.2939 74.0094 15.9939 74.1719C16.3345 74.25 16.7908 74.2844 17.247 74.2844C18.5814 74.2844 20.2376 74.0094 21.3626 73.7125C22.6158 77.7 24.4876 81.3344 26.7001 84.5375C26.572 84.5375 26.4876 84.5375 26.3595 84.6219L18.7939 81.0875L15.4564 79.6219L17.4095 82.6688C17.572 82.8813 20.9095 88.0906 23.6595 91.6188C25.0496 93.7066 26.9418 95.4118 29.1624 96.5781C31.383 97.7444 33.861 98.3343 36.3689 98.2938C37.2033 98.2938 38.0314 98.2938 38.8595 98.1656L43.4501 97.6281C47.9391 99.3142 52.757 99.9402 57.5278 99.4572C62.2986 98.9742 66.8933 97.3953 70.9533 94.8438C73.7033 94.2063 76.7814 93.4594 78.2783 93.0344L79.1064 92.8375C81.2408 92.3344 84.7908 91.5031 86.6595 87.7469L91.6564 78.0438L93.1533 75.3281L90.3251 76.5813C90.1626 76.6313 86.5783 78.2094 84.7408 79.1688C84.6564 79.1688 84.6126 79.2531 84.5283 79.2969C86.0251 76.2063 86.7751 73.7469 87.0376 72.7875C88.1095 73.0469 89.6595 73 90.7783 73C91.3314 73 91.9033 72.9156 92.2751 72.8344C92.9908 72.625 93.5783 72.1219 94.6533 68C95.2877 65.575 95.7408 62.9531 95.8251 61.6219C96.072 58.95 95.9876 57.5844 94.947 56.675C94.4095 56.25 92.8626 55.4219 92.0345 54.9969L92.0845 54.7063L92.7001 54.8344L93.4501 52.1344C94.1501 51.8094 94.8501 51.5125 95.5783 51.2563L96.2501 50.9594L96.9158 50.6188L97.1564 50.5063L97.2908 50.2938L97.4814 50.0031L97.6158 49.7563L97.8564 49.2063C98.3595 48.2094 98.7533 47.1688 99.0314 46.0813C100.022 42.5623 100.265 38.8748 99.7439 35.2563L99.7533 35.2531ZM15.3345 46.9594C16.5064 46.6969 17.6939 46.4688 18.8814 46.2594C17.7939 46.9594 16.797 47.7563 15.7564 48.5344L15.3345 46.9594ZM39.9095 45.7844C38.4126 46.825 36.7501 48.1625 35.1251 49.7875C31.5149 50.1516 27.9165 50.6237 24.3345 51.2031C29.3322 48.8805 34.5499 47.0641 39.9095 45.7813V45.7844ZM33.2033 51.8719C32.6731 52.5057 32.1725 53.1636 31.7033 53.8438L28.8751 57.8813L33.0408 55.1281C33.0408 55.1281 35.7064 53.3406 40.0064 51.2563C45.9076 50.8087 51.8268 50.6408 57.7439 50.7531C56.9156 51.4387 56.0394 52.0642 55.122 52.625L52.0814 54.4625C50.8422 54.6124 49.6173 54.8633 48.4189 55.2125C48.3561 55.2129 48.2946 55.2302 48.2408 55.2625C48.1047 55.3605 48.0074 55.5032 47.9658 55.6656L44.8408 65.875L28.2533 69.5844L23.0001 65.9219L21.5001 53.5844C25.3678 52.8801 29.2613 52.3265 33.172 51.925L33.2033 51.8719ZM55.7126 54.3781C56.0033 54.3281 61.7501 53.6281 68.5376 51.2875C74.5619 51.7454 80.5598 52.5005 86.5095 53.55L84.9939 64.0469L79.7564 67.7094L63.1689 65.8375L60.0939 55.6625C60.0576 55.5545 59.9958 55.4569 59.9136 55.378C59.8314 55.2991 59.7314 55.2413 59.622 55.2094C58.2061 54.8082 56.7579 54.5311 55.2939 54.3813L55.7126 54.3781ZM63.7033 44.6281C62.7439 45.8813 61.4064 47.4125 59.8001 48.9063C54.8133 48.7733 49.8231 48.8328 44.8408 49.0844C51.0305 46.4964 57.5468 44.7719 64.2064 43.9594L63.7033 44.6281ZM16.5376 72.3281C15.7095 71.5 14.2095 65.8688 13.8658 62.875C13.6251 60.4656 13.7876 59.9125 14.0439 59.7C14.3345 59.4594 15.4095 58.8719 16.3408 58.3344L17.5783 68.5875C17.5783 68.75 17.7064 68.9625 17.8689 69.0406L20.4564 70.8813L20.7814 71.9219C19.7064 72.1969 17.5439 72.5375 16.5345 72.325L16.5376 72.3281ZM58.3845 91.75L56.7877 91.9594H55.6627L56.6252 89.8313L58.4158 91.7531L58.3845 91.75ZM55.422 98C52.6393 98.1602 49.8494 97.8518 47.1689 97.0875L47.7564 97.0031C48.0033 97.0031 52.8814 96.3375 55.0814 93.0813H55.8283L56.8689 93.0313C57.7189 92.9531 58.497 92.8344 59.2939 92.6563L59.5408 92.9188C61.1316 94.5226 63.2475 95.499 65.5001 95.6688C62.2846 96.9629 58.8839 97.7382 55.4251 97.9656L55.422 98ZM85.7908 71.4219C84.8283 74.5469 83.7064 77.2469 82.4189 79.7563H81.4939C80.497 79.7563 79.4908 79.6719 78.3689 79.5938L72.4095 78.9563L66.0751 73.9094C65.8292 73.6657 65.5367 73.474 65.2151 73.3457C64.8935 73.2174 64.5494 73.1551 64.2033 73.1625C63.3751 73.1625 62.0689 73.5031 58.9439 74.4125C60.572 73.2094 60.622 71.6625 60.622 71.6625C60.622 71.6625 58.2752 73.7969 54.6126 74.25C50.9033 74.7531 48.0376 72.4906 48.0376 72.4906C48.1533 72.8656 48.3345 73.7438 49.1626 74.4938C47.7097 74.3255 46.2459 74.2711 44.7845 74.3313C42.5376 74.4594 39.3626 77.9094 37.0689 81.3781L28.572 83.95C24.8314 78.8406 22.9939 73.5344 22.8251 73L22.6158 72.3781L23.5751 73.0438L25.9033 74.7063L26.7501 75.2438C26.8283 75.3219 26.947 75.3719 27.1251 75.3719H27.2876L48.9501 70.5063C49.2408 70.5063 49.4033 70.2938 49.4876 70.0813L52.5783 59.8281C53.5187 59.7 54.4722 59.7 55.4127 59.8281L58.572 70.3781C58.6502 70.6188 58.9126 70.7813 59.2064 70.8313L60.6564 70.9938L81.0314 73.3406C81.1939 73.3406 81.372 73.3406 81.5345 73.2063L83.572 71.7906L85.4595 70.4563L86.1595 69.9531L85.7908 71.4219ZM80.9595 71.925L59.8001 69.5L56.6252 59.05C56.5942 58.9229 56.5269 58.8077 56.4314 58.7183C56.336 58.6289 56.2165 58.5693 56.0877 58.5469C55.3997 58.4205 54.7026 58.3494 54.0033 58.3344C53.4158 58.3344 52.7501 58.4188 51.9189 58.5469C51.7977 58.5781 51.6871 58.6413 51.5986 58.7298C51.5102 58.8182 51.447 58.9288 51.4158 59.05L48.2908 69.2531L27.2939 73.9063L18.9595 68.0813L17.2814 54.8313L18.372 54.2156L20.1126 53.875L21.6595 66.375C21.6595 66.5844 21.7876 66.7969 21.9564 66.8781L27.697 70.8813C27.8079 70.9555 27.9386 70.9947 28.072 70.9938H28.2501L45.5376 67.1688L45.7001 67.0906C45.8629 66.9967 45.9845 66.845 46.0408 66.6656L49.1658 56.4125C49.9939 56.2 52.0783 55.7125 54.0002 55.7125C55.872 55.7125 58.0033 56.2 58.8658 56.4125L61.9564 66.6656C61.9968 66.7964 62.0735 66.9131 62.1774 67.0021C62.2814 67.0911 62.4085 67.1489 62.5439 67.1688L79.8283 69.1219C79.9908 69.1219 80.1533 69.1219 80.3314 68.9938L86.0283 65.0063C86.1075 64.9515 86.1748 64.8811 86.2258 64.7995C86.2769 64.7178 86.3107 64.6265 86.3251 64.5313L87.872 53.7906L90.7502 54.4125L89.0408 66.2406L80.9189 71.925H80.9595ZM93.7502 58.1719C93.997 58.3844 94.1751 58.9219 93.9627 61.4594C93.7046 64.6962 92.9005 67.866 91.5845 70.8344C90.7095 70.9969 88.8345 70.8344 87.7127 70.5438L88.1158 68.5906L90.0876 67.2063C90.1646 67.1547 90.2301 67.0879 90.2801 67.0099C90.3301 66.932 90.3635 66.8446 90.3783 66.7531L91.7939 57.0031L93.7502 58.1719ZM91.3751 52.6219C88.3283 51.9563 81.6751 50.6188 72.5408 49.7094C75.5376 48.4563 78.5783 46.875 81.3001 44.9219C86.7033 45.6719 90.7095 46.5 92.872 47.0063L91.3751 52.6219ZM97.7533 41.5375C97.4252 43.8676 96.8242 46.151 95.9626 48.3406L95.7501 48.7438L95.672 48.9063L95.3814 49.0844L94.7439 49.3313L94.1283 49.6219L95.2189 45.5844C93.0281 45.0347 90.8184 44.5636 88.5939 44.1719L88.997 44.0719C90.2345 43.7625 91.4376 43.3219 92.5814 42.7563C92.9564 42.5438 93.297 42.2813 93.5908 41.9563C89.5876 43.2938 81.2533 42.6563 73.8783 41.9563C67.1378 41.2068 60.3632 40.8052 53.5814 40.7531C46.747 40.7531 40.0095 41.2406 33.2533 41.9125C25.8814 42.7094 17.5814 43.2969 13.5439 41.9594C13.8345 42.2844 14.2095 42.5469 14.5845 42.7594L15.7095 43.325C16.7814 43.75 17.9064 44.075 19.0439 44.2875C15.4158 44.9531 13.297 45.5406 13.0408 45.5875L14.1626 49.8375L14.0845 49.9156L12.2939 49.0875L12.0033 48.9094L11.9189 48.7469L11.7095 48.3438C10.7587 46.1843 10.1545 43.8884 9.9189 41.5406C9.59328 38.957 9.61009 36.3417 9.9689 33.7625C10.8783 33.0125 11.8908 32.3469 12.9314 31.6781C15.8894 30.0634 18.9635 28.671 22.1283 27.5125L24.0939 26.8406C21.8574 27.1849 19.6531 27.7127 17.5033 28.4188C20.2044 20.8966 25.1256 14.3717 31.6158 9.70729C38.106 5.04289 45.8593 2.45881 53.8502 2.29689C69.672 2.29689 84.1376 12.5844 90.1783 28.4188C88.0334 27.7481 85.8463 27.2209 83.6314 26.8406C86.1908 27.7375 88.7095 28.7625 91.1689 29.8875C92.3908 30.425 93.5939 31.0406 94.7158 31.7094C95.7908 32.2969 96.8001 32.9625 97.7126 33.7625L97.8408 34.4625L97.9251 35.4719C98.074 37.4962 98.0196 39.5303 97.7626 41.5438L97.7533 41.5375ZM49.4126 18.425H43.4251V9.91252H64.6658V18.425H58.6251V15.9156H57.2408V27.4063H59.3251V33.8344H48.747V27.4063H50.8314V15.9156H49.4658V18.425H49.4126Z" fill="#144444"/>
</g>
<defs>
<clipPath id="clip0">
<rect width="100" height="100" fill="white"/>
</clipPath>
</defs>
</svg>
